<svg xmlns="http://www.w3.org/2000/svg" xmlns:xlink="http://www.w3.org/1999/xlink" viewBox="0 0 197.34 192.09" xmlns:v="https://vecta.io/nano"><style><![CDATA[.B{stroke:#3c3733}.C{stroke-linejoin:round}.D{stroke-width:.24}.E{fill:#5ac7d9}.F{fill:#f05545}.G{fill:#f9cde1}.H{stroke-width:.39}.I{fill:#fff}.J{fill:none}.K{fill:#3c3733}.L{stroke-linecap:round}.M{stroke-width:.35}.N{font-size:6.61px}.O{font-family:Arial-BoldMT, Arial}.P{font-weight:700}.Q{stroke-miterlimit:10}.R{stroke-width:1.1}]]></style><defs><clipPath id="A"><path d="M24.08 116.05v6.1c-11.62 1.6-19.95 2-21.25 5.38a30.82 30.82 0 0 0 0 3.33c0 5.55 19 10 42.47 10s42.48-4.5 42.48-10v-4.3z" class="J"/></clipPath><clipPath id="B"><ellipse cx="45.3" cy="123.81" rx="42.48" ry="10.05" class="J"/></clipPath><path id="C" d="M73 17.5a.67.67 0 0 0 .68-.68h0a.67.67 0 0 0-.66-.68h0a.67.67 0 0 0-.69.67h0a.69.69 0 0 0 .69.69z"/><path id="D" d="M73.7 15.44a.69.69 0 0 0 .69.69h0a.67.67 0 0 0 .68-.68h0a.67.67 0 0 0-.66-.68h0a.67.67 0 0 0-.69.67z"/><path id="E" d="M24.08 116.05v6.1c-11.62 1.6-19.95 2-21.25 5.38a30.82 30.82 0 0 0 0 3.33c0 5.55 19 10 42.47 10s42.48-4.5 42.48-10v-4.3z"/><path id="F" d="M.117 105.7l4.51-4.51 4.51 4.51-4.51 4.51z"/><path id="G" d="M148.92 118.84h-6.8a.72.72 0 0 1-.72-.72h0v-.8a.72.72 0 0 1 .72-.72h6.8a5.45 5.45 0 0 0-.3 1.12 5.45 5.45 0 0 0 .3 1.12z"/><path id="H" d="M156.8 118.84H150a.72.72 0 0 1-.72-.72h0v-.8a.72.72 0 0 1 .72-.72h6.8a5.45 5.45 0 0 0-.3 1.12 5.45 5.45 0 0 0 .3 1.12z"/><path id="I" d="M144.17 146.93l4-.26-28.33-8.88a1.27 1.27 0 0 0-1.62.8 1.14 1.14 0 0 0-.07.41v3.43l26.06 8.67z"/><path id="J" d="M126.93 136.35c-1.62.06-1.8-.67-1.8-.67l-2-2.83-.2-.33a1.91 1.91 0 0 0-1.19 2.43 2 2 0 0 0 .19.39l1.2 1.94a1.91 1.91 0 0 0 1.62.9h6.9a1.91 1.91 0 0 0 1.91-1.83h-6.62z"/><path id="K" d="M118.1 129.6h1v25a.31.31 0 0 1-.31.31h-.42a.31.31 0 0 1-.31-.31v-25z"/></defs><g class="B C D G"><path d="M68.62 33.15H67.5a3.63 3.63 0 0 1 3.64-3.61 3.74 3.74 0 0 0 3.72-3.72v-2.6A4.15 4.15 0 0 1 79 19.1a2.54 2.54 0 0 0 2.5-2.54v-8.4h1.17v8.4a3.7 3.7 0 0 1-3.7 3.7 3 3 0 0 0-3 3v2.6a4.89 4.89 0 0 1-4.89 4.89 2.46 2.46 0 0 0-2.46 2.41zm-.54 4.25a6.71 6.71 0 0 1-6.69-6.69V17.6h1.17v13.13a5.52 5.52 0 0 0 5.52 5.52z"/><path d="M63.9 22.9h-1.34a.58.58 0 0 1-.58-.58h0a.6.6 0 0 1 .58-.59h1.34a4.11 4.11 0 0 0 4.1-4.11h0v-3.34h1.16v3.33a5.29 5.29 0 0 1-5.26 5.29zm17.6-7.7h-.37a4.45 4.45 0 0 1-4.46-4.44v-2.6h1.16v2.57a3.3 3.3 0 0 0 3.3 3.3h.37a.6.6 0 0 1 .59.58h0a.6.6 0 0 1-.59.58z"/></g><path d="M79.42 8.4a2.18 2.18 0 0 0-4.36 0z" class="B C D E"/><g class="F L B C D"><path d="M66.43 14.46a2.18 2.18 0 1 1 4.36 0h-4.36"/><path d="M66.43 10.1a2.18 2.18 0 1 0 4.36 0h-4.36"/></g><path d="M84.25 8.4a2.18 2.18 0 1 0-4.35-.3 1.5 1.5 0 0 0 0 .3z" class="B C D E"/><g class="G B C D"><path d="M62.2 18.26a.67.67 0 0 1-.05-1h.05a.68.68 0 0 1 1 0 .67.67 0 0 1 0 1 .68.68 0 0 1-1 0z"/><circle cx="60.75" cy="15.85" r=".68"/><circle cx="62.69" cy="15.85" r=".68"/><path d="M61.24 18.26a.68.68 0 0 1-1 0h0a.67.67 0 0 1-.05-1h.05a.68.68 0 0 1 1 0h0a.67.67 0 0 1 0 .95s.02.03 0 .05zm1.86-.76a.67.67 0 0 1-.68-.68h0a.67.67 0 0 1 .66-.68h0a.67.67 0 0 1 .69.67h0a.69.69 0 0 1-.67.69z"/><path d="M60.35 17.5a.65.65 0 1 1 .69-.69.69.69 0 0 1-.69.69zm2.05-2.06a.69.69 0 0 1-.6.77.7.7 0 0 1-.77-.6.49.49 0 0 1 0-.17.69.69 0 0 1 1.37 0zm0 2.74a.69.69 0 0 1-.6.77.7.7 0 0 1-.77-.6.49.49 0 0 1 0-.17.69.69 0 0 1 1.37 0z"/></g><circle cx="61.72" cy="16.81" r="1.13" class="B C D F"/><g class="E B C D"><path d="M68.62 109.6H67.5V33.15a2.44 2.44 0 0 0-2.44-2.44 4.89 4.89 0 0 1-4.89-4.89v-2.6a3 3 0 0 0-3-3 3.7 3.7 0 0 1-3.7-3.7h0V8.16h1.17v8.4a2.54 2.54 0 0 0 2.53 2.54 4.15 4.15 0 0 1 4.14 4.13v2.6a3.74 3.74 0 0 0 3.7 3.72 3.61 3.61 0 0 1 3.6 3.61z"/><path d="M68 36.8h0a.58.58 0 0 1 .52-.58 5.54 5.54 0 0 0 5-5.5V17.6h1.17v13.13a6.7 6.7 0 0 1-6.06 6.66.58.58 0 0 1-.63-.53z"/><path d="M73.56 22.9h-1.34a5.29 5.29 0 0 1-5.29-5.29h0v-3.33h1.16v3.33a4.11 4.11 0 0 0 4.12 4.12h1.35a.61.61 0 0 1 .59.59h0a.6.6 0 0 1-.59.58zM55 15.2h-.37a.58.58 0 0 1-.58-.58h0a.58.58 0 0 1 .58-.58H55a3.3 3.3 0 0 0 3.3-3.3V8.16h1.2v2.57a4.45 4.45 0 0 1-4.44 4.46z"/><path d="M56.7 8.4a2.18 2.18 0 0 1 3.27-1.888 2.18 2.18 0 0 1 1.09 1.888z"/></g><path d="M69.7 14.46a2.18 2.18 0 1 0-4.36 0zm0-4.36a2.18 2.18 0 1 1-4.36 0z" class="F B C D"/><path d="M56.22 8.4a2.18 2.18 0 1 0-4.35-.3 1.5 1.5 0 0 0 0 .3z" class="B C D E"/><g class="G B C D"><path d="M73.9 18.26a.68.68 0 0 0 0-1 .67.67 0 0 0-1 0 .68.68 0 0 0 0 .92.67.67 0 0 0 1 0z"/><circle cx="75.36" cy="15.85" r=".68"/><path d="M73 16.33a.67.67 0 0 0 1 .05v-.05a.68.68 0 0 0 0-1h0a.67.67 0 0 0-1-.05v.05a.68.68 0 0 0 0 1zm1.88 1.93a.68.68 0 0 0 1 0h0a.67.67 0 0 0 .05-1h-.05a.68.68 0 0 0-1 0h0a.67.67 0 0 0 0 .95z"/><use xlink:href="#C"/><use xlink:href="#C" x="2.77"/><use xlink:href="#D"/><use xlink:href="#D" y="2.74"/></g><g class="F B C"><circle cx="74.39" cy="16.81" r="1.13" class="D"/><path d="M117.52 85.64H73.48l12.8-9.25h44.04l-12.8 9.25z" class="H"/></g><path d="M115.72 83.64H80.27l7.48-5.25h35.45l-7.48 5.25z" class="B C E H"/><path d="M86.4 20.92v55.46h45V20.15L109.5.2zM111 56.3a5.38 5.38 0 0 1-5.11-4.63h5.1zm0-5h-5.15V45H111zm0-6.7h-5.17V38.3H111zm0-6.7h-5.17V31.6H111zm0-6.7h-5.17v-.47A5.37 5.37 0 0 1 111 25.4zm.48 25.07v-4.63h5.1a5.38 5.38 0 0 1-5.1 4.63zm5.17-5.37v.38h-5.17V45h5.17zm0-6.3h-5.17V38.3h5.17zm0-6.7h-5.17V31.6h5.17zm0-6.7h-5.17V25.4a5.37 5.37 0 0 1 5.17 5.37zM123 56.3a5.4 5.4 0 0 1-5.12-4.63H123zm0-5h-5.16V45H123zm0-6.7h-5.17V38.3H123zm0-6.7h-5.17V31.6H123zm0-6.7h-5.17v-.47A5.37 5.37 0 0 1 123 25.4zm.42 25.06v-4.62h5a5.41 5.41 0 0 1-5.08 4.63zm5.17-5.37v.38h-5.16V45h5.17zm0-6.3h-5.17V38.3h5.17zm0-6.7h-5.17V31.6h5.17zm0-6.7h-5.17V25.4a5.37 5.37 0 0 1 5.17 5.37z" class="B C F H"/><path d="M90.02 35.05h12.4V76.4h-12.4z" class="B C H I"/><path d="M90.02 72.75h12.4v3.63h-12.4z" class="B C E H"/><path d="M91.5 59.85h3.9v13a1.77 1.77 0 0 1-1.77 1.77h-.36a1.77 1.77 0 0 1-1.77-1.77z" class="B C G H"/><path d="M92.6 61.55h.28V74.6h-.28zm1.4 0h.28V74.6H94z" class="I B C H"/><path d="M90.8 60.15h5.3v.13a1.27 1.27 0 0 1-1.27 1.27h-2.76a1.27 1.27 0 0 1-1.27-1.27zm17.63 13.42h1.03v7.7h-1.03zm25.24 0h1.03v7.7h-1.03z" class="F B C H"/><path d="M112 56.86h19a4.37 4.37 0 0 1 4.37 4.37v6.86h-27.7v-6.85a4.37 4.37 0 0 1 4.33-4.38z" class="B C G H"/><path d="M111.76 56.87h.23v12.88h-.23zm4.84 0h.23v12.88h-.23zm4.85 0h.23v12.88h-.23zm4.85 0h.23v12.88h-.23zm4.84 0h.23v12.88h-.23z" fill="#a7a9ac" class="B C H"/><rect x="104.74" y="66.52" width="33.65" height="8.36" rx="3.8" class="B C E H"/><path d="M107.66 26.84h-.6V2.37l.6-.56v25.03zm-17.64 10.2h8.24V57.9h-8.24z" class="K B C H"/><path d="M90.02 37.75h7.54V57.4h-7.54z" class="B C E H"/><path d="M112.3 30.2a5 5 0 0 0-4.94-4.38h0a5 5 0 0 0-4.93 4.38z" class="B C H K"/><ellipse cx="107.39" cy="30.31" rx="4.91" ry=".33" fill="#12c3f4" class="B C H"/><path d="M99.3 59.18v-.9a.4.4 0 0 0-.4-.4H90v1.37h9.27z" class="B C F H"/><path d="M98 60.48a1.29 1.29 0 0 0 1.29-1.22H90v1.22z" class="B C G H"/><path d="M93.55 54.3h0a.18.18 0 0 1 .18.18h0v3.43h-.4v-3.44a.17.17 0 0 1 .19-.17z" class="B C H I"/><path d="M94.67 64.3h.7s-.16 7.4 3.87 8v2.5a.38.38 0 0 0 .37.39h0a.4.4 0 0 0 .38-.29l.68-2.44h1.74v-8.18h-7.74z" class="B C H K"/><path d="M93.76 62.68v.7a.9.9 0 0 0 .77.89h7.9v-1.6z" class="B C E H"/><path d="M108.43 74.9h1.03v1.03h-1.03z" class="B C H K"/><path d="M90.03 39.7l7.54 4.68v9.22l-7.54-3.9v-10z" class="B C H I"/><path d="M130.38 1.04h33.27V14.7h-33.27z" class="B C E H"/><path d="M130.38 14.72l-9.2 6.1" class="B C H J L"/><path d="M38.33 66.28h13.94c19.482.006 35.274 15.798 35.28 35.28h0v26.1H3v-26.08c0-19.482 15.788-35.28 35.27-35.3z" stroke-width=".22" class="B C I"/><path d="M24.08 116.05v6.1c-12.7 1.74-21.25 5-21.25 8.7 0 5.55 19 10 42.47 10s42.48-4.5 42.48-10v-4.3z" fill="#4b9cd6" class="B C D"/><use xlink:href="#E" class="E"/><g clip-path="url(#A)" class="B C D G"><path d="M85.67 140.72h-.6V123.2h.6v17.53zm-2.57 0h-.6V123.2h.6v17.53zm-2.57-.02h-.6v-17.54h.6v17.54zm-2.57 0h-.6v-17.52h.6v17.52zm-2.56 0h-.6v-17.52h.6v17.52zm-2.58 0h-.6v-17.53h.6v17.53zm-2.57-.02h-.6v-17.54h.6v17.54zm-2.58-.02h-.58v-17.52h.58v17.52zm-2.57 0h-.58v-17.53h.58v17.53zm-2.57-.01h-.58V123.1h.58v17.54zm-2.57 0l-.6-.02V123.1h.6v17.54zm-2.56-.02h-.6V123.1h.6v17.52zm-2.58 0h-.6V123.1h.6v17.54zm-2.57-.01h-.6v-17.54h.6v17.54zm-2.57-.02h-.6v-17.52h.6v17.52zm-2.58 0h-.6v-17.53l.6.02v17.5zm-2.56 0h-.6v-17.53h.6v17.53zm-2.57 0h-.6v-17.53h.6v17.53zm-2.57-.03h-.6v-17.52h.6v17.52zm-2.57-.01h-.6v-17.53h.6v17.53zm-2.57 0h-.6v-17.53h.6v17.53zm-2.58-.02h-.58v-17.52l.58.01v17.5zm-2.58 0l-.6-.01v-17.5h.6v17.52zm-2.56-.01h-.6V123h.6v17.53zm-2.57 0h-.6V123h.6v17.53zm-2.57-.03h-.6v-17.53h.6v17.53zm-2.57 0h-.6v-17.53h.6v17.53zm-2.57 0h-.6v-17.53h.6v17.53zm-2.56 0h-.6v-17.53h.6v17.53zm-2.58 0h-.6v-17.54h.6v17.54zm-2.57-.03h-.6v-17.53h.6v17.53zm-2.57 0h-.6v-17.53h.6v17.53z"/></g><g class="B C D"><use xlink:href="#E" class="J"/><path d="M24.08 118.83h0c-11.5 1.57-19.84 1.7-21.25 5a29.17 29.17 0 0 0 0 3.74c0 5.55 19 10 42.47 10s42.48-4.5 42.48-10v-4.3z" class="F"/></g><g clip-path="url(#B)" class="B C D"><g class="K"><use xlink:href="#F"/><path d="M9.17 105.684l4.5-4.5 4.5 4.5-4.5 4.5zm9.04.008l4.5-4.5 4.5 4.5-4.5 4.5zm9.05-.01l4.5-4.5 4.5 4.5-4.5 4.5zm9.04.001l4.5-4.5 4.5 4.5-4.5 4.5zm9.06.001l4.5-4.5 4.5 4.5-4.5 4.5zm9.03-.004l4.5-4.5 4.5 4.5-4.5 4.5zm9.05.002l4.5-4.5 4.5 4.5-4.5 4.5zm9.046-.01l4.5-4.5 4.5 4.5-4.5 4.5zm9.04.015l4.5-4.5 4.5 4.5-4.5 4.5z"/></g><g class="G"><path d="M4.635 110.196l4.5-4.5 4.5 4.5-4.5 4.5zm9.035-.01l4.5-4.5 4.5 4.5-4.5 4.5zm9.06 0l4.5-4.5 4.5 4.5-4.5 4.5zm9.046.008l4.5-4.5 4.5 4.5-4.5 4.5zm9.042-.002l4.5-4.5 4.504 4.504-4.5 4.5zm9.05.001l4.5-4.5 4.5 4.5-4.5 4.5zm9.043.006l4.5-4.5 4.5 4.5-4.5 4.5zm9.05-.008l4.5-4.5 4.5 4.5-4.5 4.5zm9.055.008l4.5-4.5 4.5 4.5-4.5 4.5zm9.035-.01l4.5-4.5 4.5 4.5-4.5 4.5z"/></g><g class="K"><path d="M.117 114.44l4.5-4.5 4.5 4.5-4.5 4.5zm9.053-.016l4.5-4.5 4.5 4.5-4.5 4.5zm9.04.008l4.5-4.5 4.5 4.5-4.5 4.5zm9.04-.01l4.5-4.5 4.5 4.5-4.5 4.5zm9.05.001l4.5-4.5 4.5 4.5-4.5 4.5zm9.052-.003l4.5-4.5 4.504 4.504-4.5 4.5zm9.038 0l4.5-4.5 4.5 4.5-4.5 4.5zm9.044 0l4.5-4.5 4.5 4.5-4.5 4.5zm9.046 0l4.5-4.5 4.5 4.5-4.5 4.5zm9.045.008l4.5-4.5 4.5 4.5-4.5 4.5z"/></g><g class="G"><path d="M4.635 118.936l4.5-4.5 4.5 4.5-4.5 4.5zm9.035-.01l4.5-4.5 4.5 4.5-4.5 4.5zm9.056.008l4.5-4.5 4.5 4.5-4.5 4.5zm9.05 0l4.5-4.5 4.5 4.5-4.5 4.5zm9.042-.002l4.5-4.5 4.5 4.5-4.5 4.5zm9.056.007l4.5-4.5 4.5 4.5-4.5 4.5z"/><path d="M58.9 118.94l4.5-4.5 4.5 4.5-4.5 4.5zm9.06-.008l4.5-4.5 4.5 4.5-4.5 4.5zm9.055.018l4.5-4.5 4.5 4.5-4.5 4.5zm9.043-.016l4.5-4.5 4.5 4.5-4.5 4.5z"/></g><g class="K"><path d="M.117 123.18l4.5-4.5 4.5 4.5-4.5 4.5zm9.053-.016l4.5-4.5 4.5 4.5-4.5 4.5zm9.04.008l4.5-4.5 4.5 4.5-4.5 4.5zm9.04-.01l4.5-4.5 4.5 4.5-4.5 4.5zm9.05.001l4.5-4.5 4.5 4.5-4.5 4.5zm9.06.001l4.5-4.5 4.5 4.5-4.5 4.5zm9.032-.002l4.5-4.5 4.5 4.5-4.5 4.5zm9.042-.002l4.5-4.5 4.5 4.5-4.5 4.5zm9.046 0l4.5-4.5 4.5 4.5-4.5 4.5zm9.045.008l4.5-4.5 4.5 4.5-4.5 4.5z"/></g><g class="G"><path d="M4.652 127.67l4.5-4.5 4.5 4.5-4.5 4.5zm9.035-.01l4.5-4.5 4.5 4.5-4.5 4.5zm9.05 0l4.5-4.5 4.5 4.5-4.5 4.5zm9.056.008l4.5-4.5 4.5 4.5-4.5 4.5zm9.035.002l4.5-4.5 4.5 4.5-4.5 4.5zm9.047.007l4.5-4.5 4.5 4.5-4.5 4.5zm9.045-.01l4.5-4.5 4.5 4.5-4.5 4.5zm9.042-.002l4.5-4.5 4.5 4.5-4.5 4.5zm9.053.01l4.5-4.5 4.5 4.5-4.5 4.5zm9.045-.01l4.5-4.5 4.5 4.5-4.5 4.5z"/></g><g class="K"><path d="M.117 131.92l4.5-4.5 4.5 4.5-4.5 4.5zm9.053-.016l4.5-4.5 4.5 4.5-4.5 4.5zm9.042.008l4.5-4.5 4.5 4.5-4.5 4.5zm9.038-.01l4.5-4.5 4.5 4.5-4.5 4.5zm9.05 0l4.5-4.5 4.5 4.5-4.5 4.5zm9.042-.003l4.5-4.5 4.5 4.5-4.5 4.5zm9.043.01l4.5-4.5 4.5 4.5-4.5 4.5zm9.05-.01l4.5-4.5 4.5 4.5-4.5 4.5zm9.046 0l4.5-4.5 4.5 4.5-4.5 4.5zm9.046.008l4.5-4.5 4.5 4.5-4.5 4.5z"/></g><g class="G"><path d="M4.652 136.4l4.5-4.5 4.5 4.5-4.5 4.5zm9.035-.01l4.5-4.5 4.5 4.5-4.5 4.5zm9.05 0l4.5-4.5 4.5 4.5-4.5 4.5zm9.056.008l4.5-4.5 4.5 4.5-4.5 4.5zm9.035.002l4.5-4.5 4.5 4.5-4.5 4.5zm9.05-.01l4.5-4.5 4.5 4.5-4.5 4.5zm9.042.008l4.5-4.5 4.5 4.5-4.5 4.5zm9.05 0l4.5-4.5 4.5 4.5-4.5 4.5zm9.04-.002l4.5-4.5 4.5 4.5-4.5 4.5zm9.034-.002l4.5-4.5 4.5 4.5-4.5 4.5z"/></g><g class="K"><path d="M.117 140.66l4.5-4.5 4.5 4.5-4.5 4.5zm9.053-.016l4.5-4.5 4.5 4.5-4.5 4.5zm9.042.008l4.5-4.5 4.5 4.5-4.5 4.5zm9.038-.01l4.5-4.5 4.5 4.5-4.5 4.5zm9.05 0l4.5-4.5 4.5 4.5-4.5 4.5zm9.06.001l4.5-4.5 4.5 4.5-4.5 4.5z"/><path d="M54.385 140.65l4.5-4.5 4.5 4.5-4.5 4.5zm9.055-.007l4.5-4.5 4.5 4.5-4.5 4.5z"/><path d="M72.47 140.64l4.5-4.5 4.5 4.5-4.5 4.5zm9.056.008l4.5-4.5 4.5 4.5-4.5 4.5z"/></g><g class="G"><path d="M4.652 145.15l4.5-4.5 4.5 4.5-4.5 4.5zm9.035-.01l4.5-4.5 4.5 4.5-4.5 4.5zm9.05 0l4.5-4.5 4.5 4.5-4.5 4.5zm9.056.01l4.5-4.5 4.5 4.5-4.5 4.5zm9.035 0l4.5-4.5 4.5 4.5-4.5 4.5zm9.047.007l4.5-4.5 4.5 4.5-4.5 4.5zm9.045-.01l4.5-4.5 4.5 4.5-4.5 4.5zm9.05 0l4.5-4.5 4.5 4.5-4.5 4.5zm9.046.008l4.5-4.5 4.5 4.5-4.5 4.5zm9.028-.012l4.5-4.5 4.5 4.5-4.5 4.5z"/></g></g><ellipse cx="45.3" cy="123.81" rx="42.48" ry="10.05" class="B C D J"/><path d="M31.27 120.02h1.27v9.5h-1.27zm31.16 0h1.27v9.5h-1.27z" class="F"/><path d="M19.77 80h50.3v24.25h-50.3z" class="B C D E"/><path d="M20.25 103.84h49.8v8.18h-49.8z" class="K"/><g class="B C"><g class="D"><path d="M19.77 105.2h50.3v.66h-50.3zm0 1.57h50.3v.66h-50.3zm0 1.53h50.3v.66h-50.3zm0 1.55h50.3v.66h-50.3z" class="E"/><path d="M34.96 104.1h-10.5V86.17h10.5v17.92z" fill="#fbd1d0"/><g class="K"><path d="M26.16 89.37h.13v1.16h-.13zm0 3.8h.13v1.16h-.13zm0-1.27h.13v1.16h-.13zm0-1.27h.13v1.16h-.13zm.14 2.54h.67v1.16h-.67zm0-1.27h.67v1.16h-.67zm.7-3a.75.75 0 0 0-.67-.73v1.1H27zm-.7.47h.67v1.16h-.67z"/><path d="M26.3 90.63h.67v1.16h-.67zm0 4.9a.73.73 0 0 0 .71-.73v-.35h-.67zm-.8-3.63h.67v1.16h-.67zm0-1.27h.67v1.16h-.67zm0-1.26h.67v1.16h-.67zm.66-1.2a.74.74 0 0 0-.66.73v.36h.66zm-.66 6.64a.71.71 0 0 0 .66.73v-1.08h-.66zm0-1.63h.67v1.16h-.67zm2.9-3.8h.13v1.16h-.13zm0 3.8h.13v1.16h-.13zm0-1.27h.13v1.16h-.13zm0-1.27h.13v1.16h-.13z"/><path d="M28.53 93.17h.67v1.16h-.67zm0-1.27h.67v1.16h-.67zm.67-3a.74.74 0 0 0-.67-.73v1.1h.67zm-.67.47h.67v1.16h-.67zm0 1.26h.67v1.16h-.67zm-.03 4.9a.72.72 0 0 0 .67-.73v-.35h-.67zm-.76-3.63h.67v1.16h-.67zm0-1.27h.67v1.16h-.67zm0-1.26h.67v1.16h-.67zm.66-1.2a.75.75 0 0 0-.67.73v.36h.67zm-.66 6.64a.73.73 0 0 0 .67.73v-1.08h-.67zm0-1.63h.67v1.16h-.67zm2.9-3.8h.13v1.16h-.13zm0 3.8h.13v1.16h-.13zm0-1.27h.13v1.16h-.13zm0-1.27h.13v1.16h-.13z"/><path d="M30.78 93.17h.67v1.16h-.67zm0-1.27h.67v1.16h-.67zm.72-3a.74.74 0 0 0-.66-.73v1.1h.66zm-.72.47h.67v1.16h-.67zm0 1.26h.67v1.16h-.67zm0 4.9a.72.72 0 0 0 .71-.73h0v-.35h-.66zm-.8-3.63h.67v1.16h-.67zm0-1.27h.67v1.16h-.67zm0-1.26h.67v1.16h-.67zm.67-1.2a.74.74 0 0 0-.66.73v.36h.66zM30 94.8a.71.71 0 0 0 .66.73v-1.08H30zm-.02-1.63h.67v1.16h-.67zm2.92-3.8h.13v1.16h-.13zm0 3.8h.13v1.16h-.13zm0-1.27h.13v1.16h-.13zm0-1.27h.13v1.16h-.13z"/><path d="M33.02 93.17h.67v1.16h-.67zm0-1.27h.67v1.16h-.67zm.68-3a.74.74 0 0 0-.67-.73v1.1h.67zm-.68.47h.67v1.16h-.67zm0 1.26h.67v1.16h-.67zm-.02 4.9a.72.72 0 0 0 .67-.73v-.35H33zm-.77-3.63h.67v1.16h-.67zm0-1.27h.67v1.16h-.67zm0-1.26h.67v1.16h-.67zm.67-1.2a.74.74 0 0 0-.67.73v.36h.67zm-.67 6.64a.72.72 0 0 0 .67.73v-1.08h-.67zm0-1.63h.67v1.16h-.67zm-6.07 4.28h.13v1.16h-.13zm0 3.82h.13v1.16h-.13zm0-1.27h.13v1.16h-.13zm0-1.27h.13v1.16h-.13z"/><path d="M26.3 101.27h.67v1.16h-.67zm0-1.27h.67v1.16h-.67zm.7-3a.74.74 0 0 0-.67-.73v1.1H27zm-.7.45h.67v1.16h-.67zm0 1.28h.67v1.16h-.67zm0 4.9a.74.74 0 0 0 .67-.73v-.36h-.67zm-.8-3.62h.67v1.16h-.67zm0-1.27h.67v1.16h-.67zm0-1.28h.67v1.16h-.67zm.66-1.2a.73.73 0 0 0-.67.75v.36h.66zm-.66 6.65a.73.73 0 0 0 .66.73v-1.1h-.66zm0-1.63h.67v1.16h-.67zm2.9-3.82h.13v1.16h-.13zm0 3.82h.13v1.16h-.13zm0-1.27h.13v1.16h-.13zm0-1.27h.13v1.16h-.13z"/><path d="M28.53 101.27h.67v1.16h-.67zm0-1.27h.67v1.16h-.67zm.67-3a.73.73 0 0 0-.67-.73v1.1h.67zm-.67.45h.67v1.16h-.67zm0 1.28h.67v1.16h-.67zm-.03 4.9a.73.73 0 0 0 .67-.73v-.36h-.67zm-.76-3.62h.67v1.16h-.67zm0-1.27h.67v1.16h-.67zm0-1.28h.67v1.16h-.67zm.66-1.2a.74.74 0 0 0-.67.73v.36h.67zm-.66 6.65a.74.74 0 0 0 .67.73v-1.1h-.67zm0-1.63h.67v1.16h-.67zm2.9-3.82h.13v1.16h-.13zm0 3.82h.13v1.16h-.13zm0-1.27h.13v1.16h-.13zm0-1.27h.13v1.16h-.13z"/><path d="M30.78 101.27h.67v1.16h-.67zm0-1.27h.67v1.16h-.67zm.72-3a.73.73 0 0 0-.66-.73v1.1h.66zm-.72.45h.67v1.16h-.67zm0 1.28h.67v1.16h-.67zm0 4.9a.73.73 0 0 0 .66-.73v-.36h-.66zm-.8-3.62h.67v1.16h-.67zm0-1.27h.67v1.16h-.67zm0-1.28h.67v1.16h-.67zm.67-1.2A.73.73 0 0 0 30 97v.36h.66zM30 102.9a.73.73 0 0 0 .66.73v-1.1H30zm-.02-1.63h.67v1.16h-.67zm2.92-3.82h.13v1.16h-.13zm0 3.82h.13v1.16h-.13zm0-1.27h.13v1.16h-.13zm0-1.27h.13v1.16h-.13z"/><path d="M33.02 101.27h.67v1.16h-.67zm0-1.27h.67v1.16h-.67zm.68-3a.73.73 0 0 0-.67-.73v1.1h.67zm-.68.45h.67v1.16h-.67zm0 1.28h.67v1.16h-.67zm-.02 4.9a.73.73 0 0 0 .67-.73v-.36H33zm-.77-3.62h.67v1.16h-.67zm0-1.27h.67v1.16h-.67zm0-1.28h.67v1.16h-.67zm.67-1.2a.73.73 0 0 0-.67.73v.36h.67zm-.67 6.65a.73.73 0 0 0 .67.73v-1.1h-.67zm0-1.63h.67v1.16h-.67z"/></g><path d="M46.93 111.52s-5.6-10.4-13.35-15.16c-7-4.3-10.1-2.44-10.1-2.44l.6.53c11.14-.2 19.54 13.77 19.54 13.77s2.58 3.42 2.5 3.9z" class="F"/><path d="M24.07 94.45l15 13.27c2.67 2.3 4.5.5 4.5.5s-8.36-13.97-19.5-13.77z" class="E"/><path d="M47.07 105.4a4.15 4.15 0 0 0 .19.93 3.66 3.66 0 0 0-.19-.93z" class="J"/><path d="M47.07 105.4c-.52-1.46-1.83-1.77-1.2-9.05.7-7.87 6-13.77 6.88-14.67a3.87 3.87 0 0 0-2.71.37c-7.07 2.84-9.2 15.15-6.58 19a18.14 18.14 0 0 1 3 6.68 37.19 37.19 0 0 1 .41 3.79L48 112a28.5 28.5 0 0 0-.61-5.29.77.77 0 0 1-.11-.39 4.89 4.89 0 0 1-.21-.92z" class="F"/><path d="M47.07 105.4c-.23-2.18.64-5.67 2.5-10.5 1.75-4.58 5.7-12.17 3.2-13.2-.86.9-6.2 6.8-6.88 14.67-.64 7.28.67 7.6 1.2 9.05z" class="G"/><path d="M47.37 106.72a1.34 1.34 0 0 0-.11-.39.77.77 0 0 0 .11.39z" fill="#008649"/><path d="M58.4 108.43c.26-.25 0-.7-.28-.9-1.1-.9-2.67-1.38-3.24-2.7a.53.53 0 0 1 0-.25c0-.37.58-.32.9-.17s.88.16.9-.2a.56.56 0 0 0-.12-.3 5.56 5.56 0 0 0-1.35-1.11 6.77 6.77 0 0 1-1.74-1.8 1.71 1.71 0 0 1-.31-.75.63.63 0 0 1 .31-.65c.36-.12.78.22 1.12 0s.2-.8 0-1.2a21.08 21.08 0 0 1-1.88-4.3 1 1 0 0 1 0-.74.78.78 0 0 1 1.08-.23h0a2.28 2.28 0 0 1 .7 1c.78 2.15.43-.5.42-.83a1.62 1.62 0 0 1 .2-1 .69.69 0 0 1 .94.11 1.77 1.77 0 0 1 .38 1 8.9 8.9 0 0 1 .11 1.86 2.08 2.08 0 0 0 .07.86.61.61 0 0 0 .69.39 2.49 2.49 0 0 0 .43-.29c.45-.24 1 .2 1.12.7a3.05 3.05 0 0 1-.25 1.49 1.9 1.9 0 0 0 0 1.48c.52.4 1.13-.85 1.73-.58a.63.63 0 0 1 .29.35 1.74 1.74 0 0 1-.2 1.73c-.2.27-.48.47-.67.75a.81.81 0 0 0 0 .94c.35.4 1 .1 1.44-.14a.71.71 0 0 1 .45-.1c.37.07.48.56.38.92-.23.8-1 1.43-1 2.28a.38.38 0 0 0 .09.31c.23.22.55-.13.84-.24.52-.2 1 .46.94 1a7.08 7.08 0 0 1-.75 1.63c-.22.6-.06 1.18-.24 1.75-.3 1-1.34 1-2.15.7a4.92 4.92 0 0 1-2.73-2.2c-.82-1.4.96-.17 1.37-.57z" class="G"/><path d="M60.5 108.15c.34-.1.3-.62.13-.94-.62-1.28-1.84-2.38-1.8-3.8a.58.58 0 0 1 0-.26c.2-.3.66 0 .9.23s.73.53.9.2a.44.44 0 0 0 0-.32 5.43 5.43 0 0 0-.76-1.57 6.82 6.82 0 0 1-.81-2.36 1.59 1.59 0 0 1 0-.81.65.65 0 0 1 .63-.44c.38 0 .62.53 1 .5s.53-.64.5-1.1a21 21 0 0 1 .11-4.69 1 1 0 0 1 .27-.69.76.76 0 0 1 1 .21.21.21 0 0 1 0 .06 2.33 2.33 0 0 1 .2 1.25c-.2 2.28.6-.26.73-.57s.26-.68.58-.78a.7.7 0 0 1 .81.49 1.89 1.89 0 0 1-.06 1 8.92 8.92 0 0 1-.69 1.73 2.15 2.15 0 0 0-.3.81.6.6 0 0 0 .46.64 3 3 0 0 0 .51-.07.86.86 0 0 1 .86 1.11 2.91 2.91 0 0 1-.85 1.25 1.84 1.84 0 0 0-.64 1.33c.3.58 1.38-.3 1.8.2a.71.71 0 0 1 .12.45 1.76 1.76 0 0 1-.91 1.48c-.3.16-.64.23-.93.4a.8.8 0 0 0-.44.83c.15.5.84.5 1.36.48a.82.82 0 0 1 .46.1c.3.22.2.7-.06 1-.54.64-1.52.87-1.9 1.62a.47.47 0 0 0 0 .33c.12.3.55.1.87.13.56 0 .72.86.42 1.33s-.94.75-1.37 1.16-.56 1-1 1.48c-.67.74-1.6.3-2.25-.27a5 5 0 0 1-1.54-3.15c.01-1.67 1.1.2 1.7 0z" class="F"/><path d="M19.77 79.22v33.4h51.07v-33.4zm16.54 32.3H21.13v-31H36.3zm16.57 0H37.7v-31h15.18zm16.57 0H54.27v-31H69.5z" class="I"/><path d="M30.33 107.52h34.3v10.74h-34.3z" class="K"/><g class="G"><rect x="33.53" y="106.88" width="11.28" height="5.02" rx="2.28"/><rect x="50.17" y="106.98" width="11.28" height="5.02" rx="2.28"/></g><rect x="26.72" y="111.31" width="41.54" height="14.73" rx="6.69" class="I"/><path d="M26.72 114.42h41.54v8.98H26.72zM19 124.7c0 .9-2.05 1.65-4.58 1.65s-4.58-.74-4.58-1.65 2.05-1.65 4.58-1.65 4.58.74 4.58 1.65z" class="F"/><path d="M14.17 90.07h.54v34.4a.25.25 0 0 1-.25.25h0a.25.25 0 0 1-.25-.25v-34.4z" fill="#fddbcc"/><path d="M17.7 82.16h-6.5L9.94 92.44c0 .6 2 1.1 4.5 1.1s4.5-.5 4.5-1.1h0z" class="I"/><path d="M17.7 82.17c0 .32-1.46.58-3.25.58s-3.26-.26-3.26-.58 1.46-.58 3.26-.58 3.25.26 3.25.58z" fill="#dadbdc"/><path d="M14.44 82.75v10.78" class="J L"/><path d="M82.13 124.7c0 .9-2.06 1.65-4.6 1.65S73 125.62 73 124.7s2-1.65 4.58-1.65 4.55.74 4.55 1.65z" class="F"/><path d="M77.35 90.07h.54v34.4a.25.25 0 0 1-.25.25h0a.25.25 0 0 1-.25-.25v-34.4z" fill="#fddbcc"/><path d="M80.87 82.16h-6.5L73.1 92.44c0 .6 2 1.1 4.5 1.1s4.5-.5 4.5-1.1h0z" class="I"/><ellipse cx="77.62" cy="82.17" rx="3.25" ry=".58" fill="#dadbdc"/><path d="M77.62 82.75v10.78" class="J L"/></g><g class="H"><path d="M2.68 42.35h33.27v13.67H2.68z" class="E"/><path d="M35.96 56.2l7.33 13.3" class="J L"/></g></g><text transform="translate(11.82 48.46)" class="F N O P">$xyz</text><text transform="translate(11.82 53.85)" class="K N O P">$xyz</text><g class="B"><path d="M8.75 46.7H29.2" class="J Q R"/><g class="C"><g class="H"><path d="M194.5 132.82h1.12l-4.15-11.35h-1.13l4.16 11.35z" class="F"/><path d="M192.24 119.75h-28v-10h22.13a5.86 5.86 0 0 1 5.87 5.85h0v4.14z" class="G"/><g class="E"><path d="M164.3 126.84h30c1.6-2.46 2.9-3.76 2.9-5.36h0a2.9 2.9 0 0 0-2.91-2.89h-30z"/><path d="M192.24 118.56v-4.2a2.45 2.45 0 0 1 2.45-2.45h0a2.45 2.45 0 0 1 2.46 2.44h0v7.42z"/></g><path d="M197.15 121.77l-32.88.05m29.35-2.36V115a1 1 0 0 1 1-1h0a1 1 0 0 1 1 1v5.8m-31.34 3.3l31.85-.07m-12.7-5.47l-.01-6.1" class="J L"/><path d="M183.7 112.23a.31.31 0 0 1-.411.353.31.31 0 0 1-.199-.243.21.21 0 0 1 0-.11.31.31 0 0 1 .36-.25.3.3 0 0 1 .25.25z" class="J"/><path d="M175.58 118.57l-.01-6.1" class="J L"/><path d="M175.85 112.25a.31.31 0 0 1-.31.3.29.29 0 0 1-.3-.28h0a.29.29 0 0 1 .29-.31h0a.31.31 0 0 1 .32.29zm-22.2-12.05h5.96v7.3h-5.96zm0 7.74h5.96v7.3h-5.96zm6.45 20.76a6.2 6.2 0 0 0 5.9-5.33h-5.9zm-6.45-29.45v.54h6v-6.74a6.2 6.2 0 0 0-6 6.2zm0 23.25v.5h5.94v-7.3h-6zm5.95 6.2v-5.33h-5.9a6.2 6.2 0 0 0 5.9 5.33zm.5-20.76h5.96v7.3h-5.96zm0-14.9v6.74h6v-.54a6.2 6.2 0 0 0-6-6.2zm0 29.95h5.94v-7.3h-6zm0-22.8h5.96v7.3h-5.96z" class="J"/><path d="M167.86 68.9l-31.54-.3a.29.29 0 0 0-.4.1.26.26 0 0 0 0 .15v83.7h31.83a.29.29 0 0 0 .29-.29V87.85c-.04-.1-.04-18.85-.18-18.94z" class="F"/><path d="M139.57 92.17h24.73v60.17h-24.73z" class="G"/><g class="F"><path d="M140.45 92.8h22.98v12.6h-22.98zm0 13.45h22.98v12.6h-22.98zm0 13.45h22.98v12.6h-22.98zm0 13.44h22.98v12.6h-22.98z"/><rect x="156.69" y="113.09" width="10.09" height="1.41" rx=".6" transform="matrix(.14 -.99 .99 .14 26.82 258.38)"/></g><rect x="155.03" y="113.11" width="10.09" height="1.41" rx=".6" transform="matrix(.14 -.99 .99 .14 25.39 256.78)" class="E"/><rect x="153.4" y="113.09" width="10.09" height="1.41" rx=".6" transform="matrix(.137272 -.990533 .990533 .137272 23.97 255.12)" class="F"/><rect x="141.24" y="95.31" width="1.41" height="10.09" rx=".6" transform="matrix(.990605 -.136753 .136753 .990605 -12.39 20.36)" class="E"/><rect x="142.89" y="95.3" width="1.41" height="10.09" rx=".6" transform="matrix(.990605 -.136753 .136753 .990605 -12.37 20.58)" class="G"/><rect x="144.54" y="95.31" width="1.41" height="10.09" rx=".6" transform="matrix(.990605 -.136753 .136753 .990605 -12.36 20.81)" class="I"/><rect x="146.19" y="95.31" width="1.41" height="10.09" rx=".6" transform="matrix(.990605 -.136753 .136753 .990605 -12.35 21.04)" class="E"/><rect x="147.84" y="95.3" width="1.41" height="10.09" rx=".6" transform="matrix(.990605 -.136753 .136753 .990605 -12.33 21.26)" class="I"/><rect x="149.48" y="95.33" width="1.41" height="10.09" rx=".6" transform="matrix(.990629 -.13658 .13658 .990629 -12.3 21.46)" class="E"/><rect x="151.14" y="95.3" width="1.41" height="10.09" rx=".6" transform="matrix(.990605 -.136753 .136753 .990605 -12.3 21.71)" class="G"/><g class="E"><rect x="152.78" y="95.33" width="1.41" height="10.09" rx=".6" transform="matrix(.990629 -.13658 .13658 .990629 -12.27 21.91)"/><rect x="154.43" y="95.3" width="1.41" height="10.09" rx=".6" transform="matrix(.990605 -.136753 .136753 .990605 -12.27 22.16)"/></g><rect x="156.07" y="95.33" width="1.41" height="10.09" rx=".6" transform="matrix(.990629 -.13658 .13658 .990629 -12.24 22.36)" class="F"/><rect x="157.73" y="95.3" width="1.41" height="10.09" rx=".6" transform="matrix(.990605 -.136753 .136753 .990605 -12.24 22.61)" class="E"/><rect x="159.37" y="95.33" width="1.41" height="10.09" rx=".6" transform="matrix(.990629 -.13658 .13658 .990629 -12.21 22.81)" class="F"/><g class="E"><rect x="161.03" y="95.3" width="1.41" height="10.09" rx=".6" transform="matrix(.990605 -.136753 .136753 .990605 -12.2 23.07)"/><rect x="141.24" y="122.21" width="1.41" height="10.09" rx=".6" transform="matrix(.99 -.14 .14 .99 -16.11 20.67)"/></g><rect x="142.89" y="122.19" width="1.41" height="10.09" rx=".6" transform="matrix(.990533 -.137272 .137272 .990533 -16.11 20.92)" class="G"/><rect x="144.54" y="122.21" width="1.41" height="10.09" rx=".6" transform="matrix(.990557 -.137099 .137099 .990557 -16.08 21.12)" class="I"/><rect x="146.2" y="122.19" width="1.41" height="10.09" rx=".6" transform="matrix(.990533 -.137272 .137272 .990533 -16.08 21.38)" class="E"/><rect x="147.84" y="122.2" width="1.41" height="10.09" rx=".6" transform="matrix(.990557 -.137099 .137099 .990557 -16.04 21.57)" class="I"/><rect x="149.77" y="121.72" width="1.41" height="10.09" rx=".6" transform="matrix(.990146 -.140037 .140037 .990146 -16.27 22.32)" class="E"/><rect x="151.13" y="122.2" width="1.41" height="10.09" rx=".6" transform="matrix(.990557 -.137099 .137099 .990557 -16.01 22.02)" class="G"/><g class="E"><rect x="152.8" y="122.19" width="1.41" height="10.09" rx=".6" transform="matrix(.990533 -.137272 .137272 .990533 -16.01 22.28)"/><rect x="154.42" y="122.2" width="1.41" height="10.09" rx=".6" transform="matrix(.99 -.14 .14 .99 -15.98 22.47)"/></g><rect x="156.09" y="122.19" width="1.41" height="10.09" rx=".6" transform="matrix(.990533 -.137272 .137272 .990533 -15.98 22.73)" class="F"/><rect x="157.72" y="122.21" width="1.41" height="10.09" rx=".6" transform="matrix(.990557 -.137099 .137099 .990557 -15.95 22.93)" class="E"/><rect x="159.39" y="122.18" width="1.41" height="10.09" rx=".6" transform="matrix(.990533 -.137272 .137272 .990533 -15.95 23.19)" class="F"/><rect x="161.3" y="121.67" width="1.41" height="10.09" rx=".6" transform="matrix(.990146 -.140037 .140037 .990146 -16.15 23.94)" class="E"/><g class="I"><rect x="141.61" y="135.05" width="1.41" height="10.09" rx=".6" transform="matrix(.990146 -.140037 .140037 .990146 -18.22 21.31)"/><rect x="142.88" y="135.6" width="1.41" height="10.09" rx=".6" transform="matrix(.990629 -.13658 .13658 .990629 -17.87 20.93)"/><rect x="144.54" y="135.59" width="1.41" height="10.09" rx=".6" transform="matrix(.990605 -.136753 .136753 .990605 -17.87 21.19)"/><rect x="146.17" y="135.6" width="1.41" height="10.09" rx=".6" transform="matrix(.990629 -.13658 .13658 .990629 -17.83 21.38)"/><rect x="147.84" y="135.59" width="1.41" height="10.09" rx=".6" transform="matrix(.990605 -.136753 .136753 .990605 -17.84 21.64)"/><rect x="149.47" y="135.6" width="1.41" height="10.09" rx=".6" transform="matrix(.990629 -.13658 .13658 .990629 -17.8 21.83)"/><rect x="151.14" y="135.58" width="1.41" height="10.09" rx=".6" transform="matrix(.990605 -.136753 .136753 .990605 -17.81 22.09)"/><rect x="152.77" y="135.6" width="1.41" height="10.09" rx=".6" transform="matrix(.99 -.14 .14 .99 -17.77 22.28)"/><rect x="154.43" y="135.58" width="1.41" height="10.09" rx=".6" transform="matrix(.990605 -.136753 .136753 .990605 -17.78 22.54)"/><rect x="156.07" y="135.6" width="1.41" height="10.09" rx=".6" transform="matrix(.990629 -.13658 .13658 .990629 -17.74 22.74)"/><rect x="157.73" y="135.58" width="1.41" height="10.09" rx=".6" transform="matrix(.990605 -.136753 .136753 .990605 -17.74 22.99)"/><rect x="159.37" y="135.61" width="1.41" height="10.09" rx=".6" transform="matrix(.990629 -.13658 .13658 .990629 -17.71 23.19)"/><rect x="161.03" y="135.58" width="1.41" height="10.09" rx=".6" transform="matrix(.990605 -.136753 .136753 .990605 -17.71 23.44)"/></g><g class="E"><use xlink:href="#G"/><use xlink:href="#G" y="-2.24"/></g><g class="I"><path d="M148.92 114.36h-6.8a.72.72 0 0 1-.72-.72h0v-.8a.72.72 0 0 1 .72-.72h6.8a5.54 5.54 0 0 0-.3 1.13 5.45 5.45 0 0 0 .3 1.12z"/><use xlink:href="#G" y="-6.74"/><use xlink:href="#G" y="-8.97"/></g><g class="E"><use xlink:href="#H"/><use xlink:href="#H" y="-2.24"/></g><g class="I"><path d="M156.8 114.36H150a.72.72 0 0 1-.72-.72h0v-.8a.72.72 0 0 1 .72-.72h6.8a5.54 5.54 0 0 0-.3 1.13 5.45 5.45 0 0 0 .3 1.12zm0-2.26H150a.72.72 0 0 1-.72-.72h0v-.8a.72.72 0 0 1 .72-.72h6.8a5.54 5.54 0 0 0-.3 1.13 5.36 5.36 0 0 0 .3 1.11z"/><use xlink:href="#H" y="-8.97"/></g><path d="M135.88 87.3a.28.28 0 0 1-.13.24l-18.26 12.3a.29.29 0 0 0-.13.24v52.17a.29.29 0 0 0 .29.29h18.26V87.3z" class="E"/></g><g class="M"><path d="M137.87 95.02h28v7.02h-28z" class="F"/><path d="M138.1 74.92h27.76v20.4H138.1z" class="E"/><path d="M160.27 101.5s-4.7-8.74-11.23-12.75c-5.88-3.6-8.5-2.05-8.5-2.05l.5.44c9.37-.15 16.44 11.58 16.44 11.58s2.16 2.88 2.08 3.3z" class="F"/><path d="M141.05 87.15L153.7 98.3c2.25 1.94 3.8.42 3.8.42S150.42 87 141.05 87.15z" class="E"/><path d="M160.4 96.37a4.15 4.15 0 0 0 .16.78 2.58 2.58 0 0 0-.16-.78z" class="J"/><path d="M160.4 96.37c-.43-1.23-1.54-1.5-1-7.62.58-6.62 5.06-11.58 5.8-12.34a3.23 3.23 0 0 0-2.28.31c-6 2.4-7.75 12.74-5.54 16a14.94 14.94 0 0 1 2.56 5.6 28.54 28.54 0 0 1 .35 3.19l.9.4a22.92 22.92 0 0 0-.52-4.45.73.73 0 0 1-.09-.32 4.15 4.15 0 0 1-.16-.78z" class="F"/><path d="M160.4 96.37c-.2-1.84.54-4.77 2.1-8.85 1.47-3.85 4.8-10.23 2.7-11.1-.73.76-5.2 5.72-5.8 12.34-.54 6.12.6 6.4 1 7.62z" class="G"/><path d="M160.64 97.47l-.1-.32a.73.73 0 0 0 .09.32z" fill="#008649"/><path d="M166.5 101.5V74.34h-29v28.1h29zm-15.1 0h-12.8V75.46h12.76zm1.17 0V75.46h12.77v26.05z" class="I"/></g><g class="H"><path d="M175.67 158.65l-38.65-8.9v-8.18l38.65 11.87v5.2z" class="F"/><g class="E"><path d="M156.76 159.65l-38.65-12.87v-5.2l38.65 12.87v5.2z"/><path d="M156.76 154.44l18.9-1v5.2l-18.9 1v-5.2z"/></g><path d="M118.1 141.57h18.9l38.65 11.87-18.9 1-38.65-12.87z" class="F"/><use xlink:href="#I" class="I"/><g class="G"><path d="M159.03 150.1l-10.9-3.4-3.95.26v4.16l12.6 4.2 2.27-5.2z"/><path d="M159 150.1l14.64-1a2 2 0 0 1 2 2v3.2l-18.9 1v-2.93a2.27 2.27 0 0 1 2.27-2.27z"/></g><path d="M145.66 146.12c.78-.14 9.75-.94 14.9-1.4l-22.22-7.08a8.1 8.1 0 0 0-2.72-.38l-16.25.43a1.36 1.36 0 0 0-1 .58h0a3.36 3.36 0 0 1 1.72.13l24.15 8.46a2.36 2.36 0 0 1 1.41-.75z" class="I"/><path d="M159.24 150.1l14.88-1-13.55-4.4-14.9 1.4a2.38 2.38 0 0 0-1.44.75L157 151.3a3.09 3.09 0 0 1 2.24-1.22z" class="G"/><use xlink:href="#J" class="I"/><path d="M133.32 135.27l-1.2-2a1.93 1.93 0 0 0-1.63-.9h-6.9a1.93 1.93 0 0 0-.63.1l.2.33 2 2.83s.18.73 1.8.67h6.68a1.74 1.74 0 0 0-.34-1.03z" class="E"/><path d="M175.67 142.6l-38.65-8.9v-8.16l38.65 11.85v5.2z" class="F"/><g class="E"><use xlink:href="#K"/><path d="M128.94 136.38l-4.83-1.47v-.85l4.83 1.47v.85zm0 3.22l-4.83-1.46v-.85l4.83 1.46v.85zm0 3.2l-4.83-1.46v-.85l4.83 1.46v.85zm0 3.23l-4.83-1.46v-.85l4.83 1.46v.85zm0 3.22l-4.83-1.47v-.84l4.83 1.46v.85zm0 3.22L124.1 151v-.85l4.83 1.45v.87z"/><use xlink:href="#K" x="5.5" y="1.86"/><use xlink:href="#K" x="10.18" y="3.4"/><path d="M155.83 141.4h1v25.06a.31.31 0 0 1-.31.31h-.42a.31.31 0 0 1-.31-.31V141.4zm18.82-2.4h1v26.45a.31.31 0 0 1-.31.31H175a.31.31 0 0 1-.31-.31V139z"/><path d="M156.76 143.6l-38.65-12.85v-5.2l38.65 12.85v5.2z"/><path d="M156.76 138.38l18.9-1v5.2l-18.9 1v-5.2z"/></g><path d="M118.1 125.53h18.9l38.65 11.85-18.9 1-38.65-12.85z" class="F"/><use xlink:href="#I" y="-16.05" class="I"/><g class="G"><path d="M159.03 134.04l-10.9-3.4-3.95.25v4.18l12.6 4.2 2.27-5.2z"/><path d="M159 134l14.64-1a2 2 0 0 1 2 2v3.2l-18.9 1v-2.93A2.26 2.26 0 0 1 159 134z"/></g><path d="M145.66 130.07c.78-.14 9.75-.94 14.9-1.4l-22.22-7.08a8.1 8.1 0 0 0-2.72-.38l-16.25.43a1.33 1.33 0 0 0-1 .58h0a3.36 3.36 0 0 1 1.72.13l24.15 8.46a2.36 2.36 0 0 1 1.41-.75z" class="I"/><path d="M159.24 134l14.88-1-13.55-4.4-14.9 1.4a2.38 2.38 0 0 0-1.44.75L157 135.2a3.13 3.13 0 0 1 2.24-1.21z" class="G"/><use xlink:href="#J" y="-16.05" class="I"/><path d="M133.32 119.2l-1.2-1.94a1.93 1.93 0 0 0-1.63-.9h-6.9a1.93 1.93 0 0 0-.63.1l.2.33 2 2.83s.18.73 1.8.67h6.68a1.85 1.85 0 0 0-.34-1.09zm26.08-68.35h33.27v13.67H159.4z" class="E"/><path d="M159.4 64.52l-9.2 6.1" class="J L"/></g></g></g><text transform="translate(168.87 57.47)" class="F N O P">$xyz</text><text transform="translate(168.87 62.87)" class="K N O P">$xyz</text><path d="M165.8 55.7h20.45" class="B J Q R"/><text transform="translate(139.86 7.37)" class="F N O P">$xyz</text><text transform="translate(139.86 12.78)" class="K N O P">$xyz</text><g class="B"><path d="M136.8 5.6h20.45" class="J Q R"/><g class="C"><g class="I M"><path d="M132.8 70.54c.17 0 9.5.9 12.74 17.2 3.6 18.2 2.26 35.65.5 53.92-.53 5.36-.1 14.1 5 17.42-4.12 2.32-9.55 1.53-13.38-1.24s-6.17-7.24-7.17-11.85a46.19 46.19 0 0 1-.47-14.13c.8-9.13 2.46-18.17 3.1-27.32.54-7.43 1.54-19.65-2.63-26.3-1.37-2.17-2.8-1.8-.86-4.6.36-.54 2.44-3.14 3.17-3.1z"/><path d="M128.06 67a6.17 6.17 0 0 1 4.75 3.59c1.4 3.26-2.7 9.2-5.5 10.24s-5.77-6.9-5.77-6.9z"/><path d="M125.36 77.4s4.2.5 3.72 4.78-5.67 8.64-7 9.48-6.86-2.42-6.86-2.42v-8.92l4.16-2.43z"/></g><path d="M120.5 82.26a21.93 21.93 0 0 1 0 10c-1.3 5.4 3.35 21 3.35 21s-20.4 1.2-20.47.38 2.42-24.28 2.42-24.28l11.72-9.67z" class="G M"/><g class="I M"><path d="M100.9 59.36s7.07-6 18-1.37 11.26 11.8 10.5 15.34-4.46 6.57-9.76 9.33-10.57 5.44-13.16 1.92-5.6-25.22-5.6-25.22z"/><path d="M100.9 59.36s-9.78-.26-13.22 8.5 5 33.42 5 33.42 4.76-.2 4.3-.5 3.9-41.42 3.9-41.42z"/></g><g class="G"><path d="M91.66 67.24c-2.22 2-2.82 5.92-2.62 8.66.26 3.64 2.6 4.75 2.35 6.28s-3.66 6.63-3.66 6.63-.4 1.18 1 1.57a3.48 3.48 0 0 1 2 1.21c.26.23-.66 1.8-.66 1.8a1.57 1.57 0 0 0 .79 1.42A13.09 13.09 0 0 0 93 96s-2 .4-.92 1.25l1 .85s-1.3 4.7.65 5 12.8-1.17 15.3-3.4 5-7.84 5-7.84 3.2 1.73 5.75-2.87c1.9-3.42.4-7.64-1.3-6.76a25.33 25.33 0 0 0-2.91 1.77c0 0-4.18 1-6-1.07a8.28 8.28 0 0 1-1.06-2.37c-1.76-4.55-3.48-9.84-7.66-12.78-2.06-1.45-5.76-2.5-8.1-1.24a5.35 5.35 0 0 0-1.08.7z" class="M"/><path d="M92.78 79.2s3.4-1.85 6.54 0" class="L"/></g><g class="M"><path d="M95 82.66s-.32.85 1.62 1.15a12.27 12.27 0 0 0 3.63 0 7.44 7.44 0 0 1-3.11 1 4.86 4.86 0 0 1-2.06-.4c-.38-.14-1.1-.64-1.45-.64.04.04 1.74.02 1.37-1.1z" class="K"/><path d="M90.06 90.18l2.12.6a1.71 1.71 0 0 0 1.14 0 1 1 0 0 0 .38-1.36l-.06-.1a1.65 1.65 0 0 0-1.5-.62" class="G L"/><path d="M95.27 95.87a14 14 0 0 1-2.14.22 4.33 4.33 0 0 1-.87-.25c-.68-.26-2.22-.52-2.6-1.22s.1-1.05.75-1.08c1.74-.08 3 2.38 4.86 2.33zm-3.15.43a8.18 8.18 0 0 0 3-.11.55.55 0 0 1 .31 0 .17.17 0 0 1 .13.24l-.06.06a7.06 7.06 0 0 1-3.5 1.76 1.9 1.9 0 0 1-1.44-.66.76.76 0 0 1-.22-.49.74.74 0 0 1 .44-.62 1.89 1.89 0 0 1 .78-.14z" class="F"/><path d="M92.7 66.5s5.5-.1 7 9.4 3.72 37.8 3.72 37.8 5.4-20.54 4.93-33.53-2.42-19.35-7.44-20.82c-.02 0-7.2 4.88-8.2 7.13z" class="I"/><path d="M115.15 87.5a1 1 0 0 0 1.46-1.09c-.08-.3-.3-.57-.4-.87-.38-1.3 1.87-2.7 2.17-.7.24 1.62-.56 4.73-2.5 5.07a1.61 1.61 0 0 1-1.86-1.3 2.11 2.11 0 0 1 0-.26m-.12 3.5a4.29 4.29 0 0 1-1.67-1.55" class="J L"/><path d="M100.32 139.36c.92 13.37 16.8 24.2 21.88 27.33 2.56-6.25 10.3-24.6 9.27-36.7-1.15-13.48-8.13-27.8-8.83-30.33l-.06-.18c-11.4 5.05-23.3 24.76-22.26 39.88z" class="G"/><path d="M120.8 95.27L80.5 139.73a15.59 15.59 0 0 0-.87 10.27l10.6 41.9h30.6l1.4-25.2s-2.85-4.6.63-13.74 3.93-24.83 0-34.86.72-16 .72-16z" class="F"/><rect x="45.12" y="99.47" width="3.02" height="37.22" rx=".97" transform="matrix(.931183 -.364552 .364552 .931183 -39.84 25.13)" class="I"/><path d="M109.5 114.35a132 132 0 0 0-4.3 16c-2.44 11-8.24 42.32-8.24 42.32.07-.42-4.34-3.15-4.72-3.42L71 153.82c-3.88-2.82-8.88-5.2-11.26-9.58s-4.32-9.35-4.2-14.46c0-2.83-.92-4.16-2.58-6.52a3.43 3.43 0 0 0-1.08-1.13 1.21 1.21 0 0 0-1.45.16s2.6 11.07-1.73 7.53c-2.43-2-3-7.33-3.48-10.2-.4-2.4-.63-4.9-2.16-6.9-.33-.45-.84-.9-1.38-.75a20.11 20.11 0 0 1 1.15 6.61c0 1.63-.62 3-.5 4.6.73 9.87 4.38 21.24 11.5 28.56q7.17 7.38 14.57 14.53a268.19 268.19 0 0 0 20.38 18.18c2.68 2.1 9.86 8.86 13.84 7.15 7.9-3.4 16-37.27 20-50 2.1-6.7 9.42-32.9-3.68-33.54a10.12 10.12 0 0 0-9.43 6.28z" class="G"/><path d="M62.9 146.53l-7 7.45a1.41 1.41 0 0 1-2 .08h0a1.41 1.41 0 0 1-.08-2h0l7-7.45a1.41 1.41 0 0 1 2-.08h0a1.41 1.41 0 0 1 .08 2zm2.93 3.13l-7 7.45a1.4 1.4 0 0 1-2 .08h0a1.41 1.41 0 0 1-.07-2h0l7-7.45a1.42 1.42 0 0 1 2-.06h0a1.41 1.41 0 0 1 .07 2z" class="F"/></g></g></g></svg>