<svg xmlns="http://www.w3.org/2000/svg" viewBox="0 0 162.44 215.58" xmlns:v="https://vecta.io/nano"><style><![CDATA[.B{stroke:#3c3733}.C{stroke-linejoin:round}.D{stroke-width:.35}.E{fill:#f05545}.F{fill:#f9cde1}.G{fill:#5ac7d9}.H{stroke-linecap:round}.I{fill:none}.J{fill:#3c3733}.K{stroke-width:.173}]]></style><defs><clipPath id="A"><circle cx="119.12" cy="59.86" r="6.77" class="B C G K"/></clipPath></defs><path d="M3.98 201.04H2.35l5.96-16.37h1.62l-5.95 16.37zm24.74-42.58H67.8a0 0 0 0 1 0 0v23.74a0 0 0 0 1 0 0H7.2a0 0 0 0 1 0 0V180a21.52 21.52 0 0 1 21.52-21.54z" class="B C D E"/><g class="G B C D"><path d="M52.87 165h1.47a7.13 7.13 0 0 1 7.13 7.13v10.07a0 0 0 0 1 0 0H45.74a0 0 0 0 1 0 0v-10.04a7.13 7.13 0 0 1 7.13-7.16zm-31.1 0h1.47a7.13 7.13 0 0 1 7.13 7.13v10.07a0 0 0 0 1 0 0H14.64a0 0 0 0 1 0 0v-10.04a7.13 7.13 0 0 1 7.13-7.16z"/><path d="M4 180.46h59.4a0 0 0 0 1 0 0v8.35a0 0 0 0 1 0 0H4A3.78 3.78 0 0 1 .18 185v-.78A3.78 3.78 0 0 1 4 180.46z"/></g><g class="E B C D"><path d="M117.6 132.48h-2.72v-69.3a8.45 8.45 0 0 1 8.43-8.44A8.73 8.73 0 0 0 132 46v-6a9.69 9.69 0 0 1 9.67-9.68 5.94 5.94 0 0 0 5.93-5.93V4.7h2.73v19.67A8.66 8.66 0 0 1 141.7 33a7 7 0 0 0-6.95 7v6a11.45 11.45 0 0 1-11.44 11.44 5.71 5.71 0 0 0-5.71 5.71z"/><path d="M116.24,71.73a1.37,1.37,0,0,1-1.49,1.36A15.69,15.69,0,0,1,100.58,57.5V26.77h2.73V57.5A13,13,0,0,0,115,70.37a1.37,1.37,0,0,1,1.24,1.36Z"/></g><g class="G B C D"><path d="M106.45 39.17h-3.14a1.36 1.36 0 0 1-1.31-1.36h0a1.36 1.36 0 0 1 1.36-1.37h3.14a9.65 9.65 0 0 0 9.66-9.66V19h2.73v7.8a12.39 12.39 0 0 1-12.44 12.38zm41.18-18.02h-.87a10.44 10.44 0 0 1-10.45-10.44v-6h2.7v6a7.72 7.72 0 0 0 7.72 7.71h.87a1.37 1.37 0 0 1 1.41 1.37h0a1.36 1.36 0 0 1-1.37 1.36z"/><path d="M142.78,5.27a5.1,5.1,0,0,0-10.2,0Z"/></g><path d="M112.38,19.44a5.1,5.1,0,1,1,10.2,0Z" class="B C D F"/><path d="M122.58 9.24a5.1 5.1 0 1 1-10.2 0zm31.52-3.97a5.1 5.1 0 0 0-10.2 0z" class="E B C D"/><g class="G B C D"><path d="M102.5 28.34a1.602 1.602 0 0 1 2.27-2.26 1.602 1.602 0 1 1-2.27 2.26zM98 23.8a1.6 1.6 0 1 1 2.26 0 1.6 1.6 0 0 1-2.26 0zm6.76 0a1.61 1.61 0 0 1-2.27-2.27 1.61 1.61 0 1 1 2.27 2.27zm-4.54 4.54a1.6 1.6 0 1 1 0-2.26 1.59 1.59 0 0 1 0 2.26z"/><path d="M104.56 26.55a1.61 1.61 0 1 1 1.6-1.61 1.61 1.61 0 0 1-1.6 1.61z"/><circle cx="98.15" cy="24.94" r="1.6"/><path d="M103 21.74a1.61 1.61 0 1 1-1.6-1.6 1.6 1.6 0 0 1 1.6 1.6zm0 6.4a1.61 1.61 0 1 1-1.6-1.6 1.6 1.6 0 0 1 1.6 1.6z"/></g><path d="M104,24.94a2.65,2.65,0,1,1-2.64-2.64A2.65,2.65,0,0,1,104,24.94Z" class="B C D F"/><g class="G B C D"><path d="M125.94 122.73h-8.34a1.36 1.36 0 0 1-1.36-1.36h0a1.36 1.36 0 0 1 1.36-1.37h8.34a12.93 12.93 0 0 0 12.93-12.93V76.35h2.73v30.73a15.66 15.66 0 0 1-15.66 15.65z"/><path d="M138.87 88.75h-3.14a12.39 12.39 0 0 1-12.39-12.39v-7.8h2.73v7.8a9.67 9.67 0 0 0 9.66 9.64h3.14a1.36 1.36 0 0 1 1.36 1.36h0a1.36 1.36 0 0 1-1.36 1.39z"/></g><g class="E B C D"><path d="M129.8,69a5.1,5.1,0,0,0-10.2,0Z"/><path d="M129.8,58.82a5.1,5.1,0,0,1-10.2,0Z"/></g><path d="M139.7 77.92a1.6 1.6 0 0 0 0-2.27 1.61 1.61 0 0 0-2.27 2.27 1.6 1.6 0 0 0 2.27 0zm4.52-4.52a1.6 1.6 0 1 0-2.26 0 1.6 1.6 0 0 0 2.26 0zm-6.8 0a1.62 1.62 0 0 0 2.27 0 1.61 1.61 0 1 0-2.27-2.27 1.62 1.62 0 0 0 0 2.27zm4.58 4.52a1.602 1.602 0 0 0 2.26-2.27 1.602 1.602 0 1 0-2.26 2.27z" class="F B C D"/><path d="M137.62 76.12a1.6 1.6 0 1 0-1.6-1.6 1.6 1.6 0 0 0 1.6 1.6zm6.38 0a1.6 1.6 0 1 0-1.6-1.6 1.6 1.6 0 0 0 1.6 1.6zm-4.78-4.82a1.61 1.61 0 1 0 1.6-1.6 1.61 1.61 0 0 0-1.6 1.6zm0 6.42a1.61 1.61 0 1 0 1.6-1.6 1.61 1.61 0 0 0-1.6 1.6z" class="E B C D"/><path d="M138.18 74.52a2.65 2.65 0 1 0 2.64-2.64 2.64 2.64 0 0 0-2.64 2.64zM113 215.4h-2.7V139a8.44 8.44 0 0 1 8.43-8.43 8.73 8.73 0 0 0 8.72-8.72v-6a9.69 9.69 0 0 1 9.68-9.68 5.94 5.94 0 0 0 5.93-5.93V80.48h2.72v19.67a8.67 8.67 0 0 1-8.65 8.66 7 7 0 0 0-6.95 7v6a11.47 11.47 0 0 1-11.45 11.45A5.71 5.71 0 0 0 113 139z" class="G B C D"/><g class="E B C D"><path d="M111.66 147.5a1.36 1.36 0 0 1-1.48 1.36A15.68 15.68 0 0 1 96 133.29v-30.73h2.73v30.73a13 13 0 0 0 11.69 12.87 1.36 1.36 0 0 1 1.24 1.35z"/><path d="M101.87 115h-3.14a1.36 1.36 0 0 1-1.36-1.37h0a1.36 1.36 0 0 1 1.36-1.36h3.14a9.66 9.66 0 0 0 9.66-9.67v-7.83h2.73v7.8A12.4 12.4 0 0 1 101.87 115z"/></g><g class="G B C D"><path d="M143.06 96.94h-.88a10.45 10.45 0 0 1-10.45-10.45v-6h2.73v6a7.72 7.72 0 0 0 7.72 7.72h.88a1.36 1.36 0 0 1 1.36 1.36h0a1.36 1.36 0 0 1-1.36 1.37z"/><path d="M128,81.06a5.1,5.1,0,1,1,10.2,0" class="H"/></g><path d="M118,95.23a5.1,5.1,0,1,0-10.2,0Z" class="B C D F"/><g class="E B C D"><path d="M118,85a5.1,5.1,0,1,1-10.2,0Z"/><path d="M139.32,81.06a5.1,5.1,0,0,1,10.2,0" class="H"/></g><g class="G B C D"><path d="M97.9 104.13a1.61 1.61 0 1 1 2.27 0 1.62 1.62 0 0 1-2.27 0zm-4.52-4.53a1.6 1.6 0 1 1 2.26 0 1.6 1.6 0 0 1-2.26 0zm6.8 0a1.61 1.61 0 1 1-2.27-2.27 1.6 1.6 0 0 1 2.27 0 1.62 1.62 0 0 1 0 2.27zm-4.54 4.53a1.6 1.6 0 1 1 0-2.27 1.61 1.61 0 0 1 0 2.27z"/><path d="M100 102.33a1.6 1.6 0 1 1 1.61-1.6 1.6 1.6 0 0 1-1.61 1.6zm-6.43 0a1.6 1.6 0 1 1 1.61-1.6 1.6 1.6 0 0 1-1.61 1.6z"/><path d="M98.38 97.52a1.6 1.6 0 1 1-1.6-1.6 1.61 1.61 0 0 1 1.6 1.6zm0 6.4a1.6 1.6 0 1 1-1.6-1.6 1.61 1.61 0 0 1 1.6 1.6z"/></g><path d="M99.42 100.73a2.64 2.64 0 1 1-2.64-2.64 2.64 2.64 0 0 1 2.64 2.64z" class="B C D F"/><g class="G B C D"><path d="M121.36 198.52H113a1.37 1.37 0 0 1-1.37-1.37h0a1.36 1.36 0 0 1 1.37-1.36h8.33a12.93 12.93 0 0 0 12.93-12.93v-30.73H137v30.73a15.66 15.66 0 0 1-15.64 15.66z"/><path d="M134.3 164.53h-3.14a12.39 12.39 0 0 1-12.39-12.39v-7.8h2.73v7.8a9.66 9.66 0 0 0 9.66 9.66h3.14a1.37 1.37 0 0 1 1.37 1.37h0a1.37 1.37 0 0 1-1.37 1.36z"/></g><g class="E B C D"><path d="M125.23,144.8a5.1,5.1,0,1,0-10.2,0Z"/><path d="M125.23,134.6a5.1,5.1,0,1,1-10.2,0Z"/></g><path d="M135.1 153.7a1.6 1.6 0 1 0-2.26 0 1.59 1.59 0 0 0 2.26 0zm4.55-4.53a1.61 1.61 0 0 0-2.27-2.27 1.61 1.61 0 1 0 2.27 2.27zm-6.8 0a1.602 1.602 0 1 0 2.26-2.27 1.602 1.602 0 0 0-2.26 2.27zm4.53 4.53a1.6 1.6 0 1 0 0-2.26 1.6 1.6 0 0 0 0 2.26z" class="F B C D"/><path d="M133 151.9a1.61 1.61 0 1 0-1.6-1.61 1.6 1.6 0 0 0 1.6 1.61zm6.45 0a1.61 1.61 0 1 0-1.6-1.61 1.6 1.6 0 0 0 1.6 1.61zm-4.8-4.8a1.61 1.61 0 1 0 1.61-1.6 1.61 1.61 0 0 0-1.61 1.6zm0 6.4a1.61 1.61 0 1 0 1.61-1.6 1.61 1.61 0 0 0-1.61 1.6z" class="E B C D"/><path d="M133.6 150.3a2.65 2.65 0 1 0 2.65-2.64 2.65 2.65 0 0 0-2.65 2.64z" class="B C D G"/><path d="M25.32 156.47v-62.5a25.51 25.51 0 0 1 25.52-25.52h5.22c13.807 0 25 11.193 25 25v63H25.32z" class="B C D J"/><g class="F B C D"><path d="M42.38 115.33H41.2a3.67 3.67 0 0 1 3.7-3.65 3.79 3.79 0 0 0 3.78-3.78v-2.63a4.2 4.2 0 0 1 4.19-4.19 2.57 2.57 0 0 0 2.57-2.57V90h1.18v8.52a3.75 3.75 0 0 1-3.75 3.75 3 3 0 0 0-3 3v2.63a5 5 0 0 1-5 5 2.5 2.5 0 0 0-2.49 2.43zm-.54 4.32a6.79 6.79 0 0 1-6.79-6.78v-13.3h1.18v13.3a5.61 5.61 0 0 0 5.61 5.6z"/><path d="M37.6 104.93h-1.36a.6.6 0 0 1-.59-.59h0a.59.59 0 0 1 .59-.59h1.36a4.19 4.19 0 0 0 4.19-4.19v-3.38H43v3.38a5.37 5.37 0 0 1-5.41 5.37zm17.84-7.8h-.38a4.53 4.53 0 0 1-4.53-4.53V90h1.2v2.6a3.34 3.34 0 0 0 3.34 3.35h.38a.58.58 0 0 1 .59.59h0a.58.58 0 0 1-.59.58z"/></g><path d="M53.33,90.24a2.21,2.21,0,0,0-4.42,0Z" class="B C D G"/><g class="E H B C D"><path d="M40.16,96.38a2.21,2.21,0,0,1,4.42,0H40.16"/><path d="M40.16,92a2.21,2.21,0,1,0,4.42,0H40.16"/></g><path d="M58.24,90.24a2.21,2.21,0,0,0-4.42,0Z" class="B C D G"/><g class="F B C D"><path d="M35.88 100.24a.71.71 0 0 1 0-1 .69.69 0 0 1 1 0 .71.71 0 0 1 0 1 .69.69 0 0 1-1 0z"/><circle cx="34.4" cy="97.78" r=".69"/><path d="M36.86 98.27a.69.69 0 1 1 0-1 .69.69 0 0 1 0 1z"/><circle cx="34.4" cy="99.74" r=".69"/><circle cx="36.78" cy="98.76" r=".69"/><path d="M34 99.46a.7.7 0 1 1 .69-.7.7.7 0 0 1-.69.7zm2.08-2.1a.7.7 0 1 1-.69-.69.69.69 0 0 1 .69.69zm0 2.78a.7.7 0 1 1-.69-.69.69.69 0 0 1 .69.69z"/></g><g class="E B C D"><path d="M36.53 98.76a1.15 1.15 0 1 1-1.14-1.14 1.15 1.15 0 0 1 1.14 1.14zM42.38 156H41.2v-40.67a2.48 2.48 0 0 0-2.47-2.47 5 5 0 0 1-5-5v-2.63a3 3 0 0 0-3-3A3.75 3.75 0 0 1 27 98.51V90h1.18v8.52a2.57 2.57 0 0 0 2.57 2.57 4.2 4.2 0 0 1 4.25 4.18v2.63a3.79 3.79 0 0 0 3.78 3.78 3.64 3.64 0 0 1 3.65 3.65z"/><path d="M41.8 119h0a.59.59 0 0 1 .54-.58 5.61 5.61 0 0 0 5.07-5.58V99.56h1.18v13.3a6.79 6.79 0 0 1-6.14 6.75.59.59 0 0 1-.65-.62z"/></g><g class="G B C D"><path d="M47.4 104.93H46a5.37 5.37 0 0 1-5.37-5.37v-3.38h1.18v3.38a4.19 4.19 0 0 0 4.19 4.19h1.4a.59.59 0 0 1 .59.59h0a.6.6 0 0 1-.59.59zm-18.83-7.8h-.38a.58.58 0 0 1-.59-.59h0a.58.58 0 0 1 .59-.59h.38a3.34 3.34 0 0 0 3.34-3.35V90h1.2v2.6a4.53 4.53 0 0 1-4.53 4.52z"/><path d="M30.3,90.24a2.21,2.21,0,1,1,4.41,0Z"/></g><g class="E B C D"><path d="M43.47,96.38a2.21,2.21,0,0,0-4.42,0Z"/><path d="M43.47,92a2.21,2.21,0,0,1-4.42,0Z"/></g><path d="M29.8 90.24a2.21 2.21 0 1 0-4.42 0z" class="B C D G"/><g class="F B C D"><circle cx="47.26" cy="99.74" r=".69"/><circle cx="49.22" cy="97.78" r=".69"/><circle cx="47.26" cy="97.78" r=".69"/><circle cx="49.22" cy="99.74" r=".69"/><circle cx="46.85" cy="98.76" r=".69"/><circle cx="49.63" cy="98.76" r=".69"/><path d="M47.55 97.37a.7.7 0 1 0 .69-.69.69.69 0 0 0-.69.69zm0 2.78a.7.7 0 1 0 .69-.69.69.69 0 0 0-.69.69z"/></g><path d="M47.1 98.76a1.15 1.15 0 1 0 1.14-1.14 1.15 1.15 0 0 0-1.14 1.14z" class="B C D E"/><g class="F B C D"><path d="M71 102.4h-1.2a3.68 3.68 0 0 1 3.7-3.66A3.77 3.77 0 0 0 77.27 95v-2.65a4.2 4.2 0 0 1 4.2-4.19A2.58 2.58 0 0 0 84 85.59v-8.52h1.18v8.52a3.75 3.75 0 0 1-3.75 3.75 3 3 0 0 0-3 3V95a5 5 0 0 1-5 5 2.49 2.49 0 0 0-2.43 2.41zm-.57 4.33a6.79 6.79 0 0 1-6.78-6.73V86.63h1.18V100a5.6 5.6 0 0 0 5.6 5.6z"/><path d="M66.2 92h-1.36a.6.6 0 0 1-.59-.6h0a.6.6 0 0 1 .59-.59h1.36a4.19 4.19 0 0 0 4.19-4.18v-3.37h1.18v3.38A5.37 5.37 0 0 1 66.19 92zM84 84.2h-.38a4.53 4.53 0 0 1-4.53-4.53v-2.6h1.18v2.6A3.35 3.35 0 0 0 83.66 83H84a.59.59 0 0 1 .59.59h0a.6.6 0 0 1-.59.61z"/></g><path d="M81.93,77.32a2.21,2.21,0,0,0-4.42,0Z" class="B C D G"/><path d="M68.76 83.46a2.21 2.21 0 0 1 4.42 0h-4.42m0-4.46a2.21 2.21 0 1 0 4.42 0h-4.42" class="E H B C D"/><path d="M86.84,77.32a2.21,2.21,0,0,0-4.42,0Z" class="B C D G"/><g class="F B C D"><circle cx="64.97" cy="86.82" r=".69"/><path d="M62.5 85.35a.69.69 0 1 1 1 0 .69.69 0 0 1-1 0zm2.96 0a.69.69 0 0 1-1 0 .68.68 0 0 1 0-1 .707.707 0 0 1 1 1z"/><path d="M63.5 87.3a.68.68 0 0 1-1 0 .69.69 0 1 1 1 0zm1.87-.76a.7.7 0 0 1-.69-.7.7.7 0 0 1 1.39 0 .7.7 0 0 1-.7.7z"/><path d="M62.6 86.54a.7.7 0 0 1-.7-.7.7.7 0 1 1 .7.7zm2.08-2.1a.7.7 0 1 1-.7-.69.7.7 0 0 1 .7.69zm0 2.78a.7.7 0 1 1-.7-.69.69.69 0 0 1 .7.69z"/></g><path d="M65.13 85.84A1.15 1.15 0 1 1 64 84.7a1.15 1.15 0 0 1 1.13 1.14z" class="B C D E"/><g class="G B C D"><path d="M71 180h-1.2v-77.6a2.47 2.47 0 0 0-2.47-2.47 5 5 0 0 1-5-5v-2.6a3 3 0 0 0-3-3 3.75 3.75 0 0 1-3.75-3.75v-8.53h1.18v8.52a2.57 2.57 0 0 0 2.57 2.57 4.2 4.2 0 0 1 4.19 4.19V95a3.78 3.78 0 0 0 3.78 3.77 3.66 3.66 0 0 1 3.7 3.64z"/><path d="M70.4 106.1h0a.6.6 0 0 1 .53-.59A5.6 5.6 0 0 0 76 100V86.63h1.2V100a6.8 6.8 0 0 1-6.19 6.7.59.59 0 0 1-.61-.59z"/><path d="M76 92h-1.37a5.38 5.38 0 0 1-5.37-5.37v-3.37h1.2v3.38a4.18 4.18 0 0 0 4.18 4.18H76a.59.59 0 0 1 .59.59h0A.59.59 0 0 1 76 92zm-18.83-7.8h-.38a.59.59 0 0 1-.59-.59h0a.58.58 0 0 1 .59-.59h.38a3.35 3.35 0 0 0 3.34-3.35v-2.6h1.18v2.6a4.52 4.52 0 0 1-4.52 4.53z"/><path d="M58.9 77.32a2.21 2.21 0 0 1 4.42 0z"/></g><path d="M72.07 83.46a2.21 2.21 0 0 0-4.42 0zm0-4.46a2.21 2.21 0 0 1-4.42 0z" class="E B C D"/><path d="M58.4 77.32a2.21 2.21 0 0 0-4.42 0z" class="B C D G"/><g class="F B C D"><circle cx="75.86" cy="86.82" r=".69"/><path d="M78.3 85.35a.69.69 0 1 0-1 0 .69.69 0 0 0 1 0zm-2.93 0a.69.69 0 1 0 0-1 .69.69 0 0 0 0 1z"/><circle cx="77.82" cy="86.82" r=".69"/><path d="M75.45 86.54a.71.71 0 0 0 .7-.7.7.7 0 0 0-.7-.69.69.69 0 0 0-.69.69.7.7 0 0 0 .69.7zm2.78 0a.7.7 0 0 0 .69-.7.69.69 0 0 0-.69-.69.7.7 0 0 0-.7.69.71.71 0 0 0 .7.7z"/><path d="M76.15 84.45a.69.69 0 1 0 .69-.69.69.69 0 0 0-.69.69zm0 2.78a.69.69 0 1 0 .69-.69.69.69 0 0 0-.69.69z"/></g><g class="E B C D"><path d="M75.7 85.84a1.14 1.14 0 1 0 1.14-1.14 1.15 1.15 0 0 0-1.14 1.14z"/><path d="M82.42 95.37a28.28 28.28 0 0 0-28.28-28.28h-3.6a26.59 26.59 0 0 0-26.59 26.59v62.8h58.48zm-2.33.7h-26V69.53a26.56 26.56 0 0 1 26 26.55zm0 29h-26V98.52h26zm-29-55.56h1v26.56H25.87v-1.35a25.21 25.21 0 0 1 25.21-25.21zm1 29v26.56H25.87V98.52zm-26.17 29H52v26.56H25.87zm28.26 26.56v-26.55h26v26.56z"/><rect x="110.36" y="39.65" width="51.9" height="110.7" rx="9.73"/></g><rect x="107.65" y="39.65" width="51.9" height="110.7" rx="9.73" class="B C D G"/><path d="M109.86 49.27h47.44v87.14h-47.44zm27.26 93.83a3.47 3.47 0 1 1-3.47-3.46 3.46 3.46 0 0 1 3.47 3.46z" class="E B C D"/><circle cx="119.12" cy="59.86" r="6.77" class="G"/><g clip-path="url(#A)" class="B C K"><path d="M120.02 58.95l.88-.57-.97.4V59l-2.76 1.77 1.25 7 1.53-2.1 2-2.73-1.94-4z" class="F"/><g class="H"><path d="M119 84.3h.68l.64-16.5.9-4.1-1.43.5-.57.2-.53.18-.57.2-.53.18-.44.16H117a3.05 3.05 0 0 0-.53.2 3.33 3.33 0 0 0-.58.33 4.06 4.06 0 0 0-1.13 1.16 4 4 0 0 0-.63 2l-.6 15.16h.55" class="E"/><g class="F"><path d="M116 84.2h.52m-1.6-.05l.52.02m-1.6-.07l.53.02m-1.6-.05l.52.02"/></g></g><path d="M117.88 64.87L122 63l2.8 1.13c1.6.64 2.6 2.2 1 3.86l-.65 16.63-7.3-.28.65-16.52z" class="E"/><path d="M118.13 55.37s-.33-1-1.1.07a36.93 36.93 0 0 0-1.5 4 .15.15 0 0 0 .14.21h.56v2.16h2.33a1.41 1.41 0 0 0 1.37-1.07l.36-1.5s1.53-4.3-2.15-3.88z" class="F"/><path d="M120.85 73h0v-.47.47z" class="I"/><path d="M111.1 75.28l.67-2.4 9.08.35v-.7L121 69a10.47 10.47 0 0 1 .52-3 3.06 3.06 0 0 1 2.4-1.78 3 3 0 0 1 3.27 2.26l-.28 7.28a5.05 5.05 0 0 1-5.52 4.85 24.34 24.34 0 0 1-10.3-3.33z" class="E"/><path d="M121 69l-.13 3.53L121 69z" fill="#e37721"/><path d="M121.45 61.55l.2-1.62s1.52-1.54 1.37-3-1.85-2.32-3.42-2.38a12.3 12.3 0 0 0-3.33.43 1.3 1.3 0 0 0 .76 1.57c.17.07.42 0 .6.06a2.15 2.15 0 0 1 .67.35c.4.3.26.8.26 1.25 0 0 1.12.08 1.13.53l-.3 1.5h.75s.3-1.53.57-1.35-.06 1.66.12 2.1a1 1 0 0 0 .63.55z" class="J"/><path d="M120.13 60.24s0-1.26.46-1.47c0 0 .43-.15.64.14s.06.72-.17 1.2a1.1 1.1 0 0 1-.87.61" class="F H"/><path d="M116.25 60.27h.9v.25l-.8.18a.22.22 0 0 1-.27-.21h0a.22.22 0 0 1 .18-.22z" class="E"/><path d="M116.6 57.56a.08.08 0 0 0 .1 0 .88.88 0 0 1 .85-.21 1.49 1.49 0 0 1 .45.2.08.08 0 0 0 .12 0 .09.09 0 0 0 0-.13 1.48 1.48 0 0 0-.5-.22 1 1 0 0 0-1 .25.08.08 0 0 0 0 .12z" class="J"/><path d="M118 57.9s-.84-.55-1.3 0a.93.93 0 0 0 1.29 0z" fill="#fff"/><path d="M116.68 57.93a.05.05 0 0 1 0-.08.81.81 0 0 1 .86-.22 1.15 1.15 0 0 1 .54.27.07.07 0 0 1 0 .06 1 1 0 0 1-1.14.15.92.92 0 0 1-.26-.18zm.52-.2a.59.59 0 0 0-.4.17.86.86 0 0 0 1.11 0 1.4 1.4 0 0 0-.71-.17z" class="J"/><path d="M117.06 57.83a.25.25 0 1 0 .44.24.24.24 0 0 0-.1-.34.25.25 0 0 0-.34.1z"/><g class="H I"><path d="M120.84 73.24s3.15.68 3.78 3.45m-8.52-17.5s.54 0 .63.16-.37.2-.37.2-.33-.14-.4-.06"/></g><path d="M117.15,60.27l-.93-.34s-.18,0-.07.28Z" class="E"/><path d="M117 59.8a1 1 0 0 1 .65.49 1.18 1.18 0 0 1 0 .53l-.06.78a.93.93 0 0 1-.07.33.85.85 0 0 1-.73.28 2.09 2.09 0 0 1-.43 0 .3.3 0 0 1-.23-.16.55.55 0 0 1 0-.36v-1a.9.9 0 0 0 .46 0c-.05 0 0 .25 0 .3a.49.49 0 0 0 .49-.29.48.48 0 0 0-.13-.55c-.15-.13-.76-.12-.74-.26s.67-.1.8-.08z" class="J"/><g class="G"><path d="M117.88 64.87l-.4.88.33.68-.55 6.43 1.67-.16-.58-6.18.37-1.22-.85-.43z"/><path d="M117.88 64.87l1.3.95 3.65-2.7-.96-.85-4 2.6z"/></g></g><g class="B C"><circle cx="119.12" cy="59.86" r="6.77" class="I K"/><g class="D"><path d="M112.36 68.86h42.1v55.53h-42.1z" class="F"/><g class="G"><path d="M112.36 124.4h42.1v7.5h-42.1zm25.48-47.82H117a2.65 2.65 0 0 1-2.65-2.65h0a2.66 2.66 0 0 1 2.65-2.66h20.88a2.66 2.66 0 0 1 2.66 2.66h0a2.66 2.66 0 0 1-2.7 2.65zm0 44.42H117a2.66 2.66 0 0 1-2.65-2.66h0a2.65 2.65 0 0 1 2.65-2.65h20.88a2.66 2.66 0 0 1 2.66 2.65h0a2.66 2.66 0 0 1-2.7 2.66zM150 84.88h-20.9a2.66 2.66 0 0 1-2.65-2.66h0a2.65 2.65 0 0 1 2.65-2.65H150a2.66 2.66 0 0 1 2.66 2.65h0a2.66 2.66 0 0 1-2.66 2.66zm0 25.9h-20.9a2.66 2.66 0 0 1-2.65-2.66h0a2.65 2.65 0 0 1 2.65-2.65H150a2.66 2.66 0 0 1 2.66 2.65h0a2.66 2.66 0 0 1-2.66 2.66z"/><rect x="114.31" y="90.18" width="26.19" height="13.34" rx="2.24"/></g><path d="M125.62 148.06s7.18-7.08 7.75-7.4 5.35-.2 7.1-1.33 1.5 1 .16 1.8-4.9 2.7-4.9 2.7-.14 1.73 3.14 1.48 12.47-2.8 12.47-2.8a1.34 1.34 0 0 1-.33 1.84 73.14 73.14 0 0 1-6.91 3.63s-6.63 5.62-7.16 5.8-12.36.58-12.36.58zM99.5 77.36c-.22-.07-.3-.12 0-.12.83 0 2.78-1.95 2.78-1.95h.15a3.85 3.85 0 0 1-1.2-1c-.56-.88 2.34-1.28 2.58-2.5s-3.22-2-4.5-3.7c-.8-1.06-.3-2.27.1-3.4a5.88 5.88 0 0 0 .15-4.71A9.54 9.54 0 0 0 97 56.35a19.6 19.6 0 0 0-2.19-1.65 5.5 5.5 0 0 0-.4-1.37c-.32-.72-4.18-2.1-4.18-2.1C68.55 53.73 75 80.43 75.55 82.1s-3.9 7.06-3.9 7.06l18.4 19.26s-6.14-14.17-6.3-16.67c-.12-1.87.84-3.85 1.63-5.5A23.11 23.11 0 0 1 88.44 81a75.41 75.41 0 0 0 8.18 2.46c4.9 1.05 3.46-2 3.46-3.06s.56-.4 1.64-.54c-1.4-.27-2.05-2.02-2.2-2.5z" fill="#9f5645"/><path d="M99.5 77.36v-.12c-.3 0-.22.05 0 .12z" class="E"/><g fill="#9f2862"><path d="M99.44 77.34c1.33.5 2.88.7 3.37-1a.86.86 0 0 0-.41-1h-.15c-.07 0-.17.17-.22.22l-.23.23-.5.46a3.65 3.65 0 0 1-1.14.67 2.14 2.14 0 0 1-1.73-.19 1.21 1.21 0 0 1-.65-.7c.22.73.97 1.06 1.66 1.3z"/><path d="M101.2 78a13.18 13.18 0 0 0-2.59-1.06c.84.87 1.85 2.7 3.12 3a2.84 2.84 0 0 0 .45-.1c1.37-.45-.98-1.84-.98-1.84z"/></g><path d="M77.17 39.1a2.62 2.62 0 0 0 .24.68m4.93-.38a1.47 1.47 0 0 0-.78 1.24m-7.46-.14l1-.14m4.55-.56a.43.43 0 0 1 .54.08" class="H I"/><path d="M94.5 47.16c-.13-.3-1-1-.88-1.28a2.49 2.49 0 0 0-2.94-3.24 2.67 2.67 0 0 0-1.59-1.92 2.89 2.89 0 0 0-2.45.26c0-.76-1.62-1.53-2.26-1.76a2.54 2.54 0 0 0-2.23.24c-.4-1-2.2-1.07-3.1-1-.18 0-2.12.2-1.76.6-.78-.88-3-.46-3.93 0-.3.15-1.4.84-1.05 1.3a2.36 2.36 0 0 0-3.93.88 2.93 2.93 0 0 0-3.68 2.4 1.46 1.46 0 0 0-2.1.41 4.19 4.19 0 0 0-.5 2.35 2.69 2.69 0 0 0-2.94 3A4.75 4.75 0 0 0 56 53.94c0-.2-1.47 1-1.6 1.25a2.14 2.14 0 0 0 .07 2.42 7.93 7.93 0 0 0-1 2.16 2.72 2.72 0 0 0 .39 2.29c.14.17.32.34.3.56A.76.76 0 0 1 54 63a4.55 4.55 0 0 0 .49 5 1.46 1.46 0 0 1 .43.68 1.43 1.43 0 0 1-.09.54 4 4 0 0 0 2 4.77 2.5 2.5 0 0 0 .66 2.33c.58.57 1.24.4 1.85.76s.63.9 1 1.3a3.59 3.59 0 0 0 3.83 1 4.6 4.6 0 0 0 3.94.5 2.65 2.65 0 0 0 4.35.84c-.23.28 1.53 1.44 1.78 1.5 3 .83 4.4-1 4.56-3.76a38.38 38.38 0 0 1 .2-4.1 14.27 14.27 0 0 1 1.72-4.21l4.15-7.68c1.15-2.13 2.1-3.92 4.24-5.2 1.62-1 4.1-2.26 6-2.23a3.58 3.58 0 0 0-2.84-3c1.4-1.16 3-2.9 2.23-4.86z" class="E"/><path d="M54.44 57.77a1.58 1.58 0 0 1 1.15-.4c.16 0 .36 0 .4-.13m.1-3.54a2 2 0 0 0 .53 1.4.24.24 0 0 0-.13-.1m37.15-9.1a2 2 0 0 1-1.15.91m-.26 5.3a3.34 3.34 0 0 0-1.65 1.14m-26-9.54a2.23 2.23 0 0 0 .56 1m7.1-4.53c0 .33.07.66.1 1m-3.94-.01a1.35 1.35 0 0 0 .12 1.16M86.7 41a1.28 1.28 0 0 1-.35 1.1m4.35.52a2.35 2.35 0 0 0-1 1.35M54.2 62.8a2.58 2.58 0 0 1 1.24-.79M55 68.37a1.43 1.43 0 0 0 1.27.39m.5 5.24a2.09 2.09 0 0 0 1.33 0m1.4 3a1.8 1.8 0 0 0 1.5-.11m3.35 2.5a2 2 0 0 1-.69-1.39m4.5 1.82a1.67 1.67 0 0 0 .8-1m3.7 1.87a3.19 3.19 0 0 1-.39-1.94m6.5-13.58A10.72 10.72 0 0 1 78 67m-13.44-4a1.75 1.75 0 0 0 .68 1.37l-.13.17m-5.93 2.3a3.46 3.46 0 0 0 .82 1.31m.63 4.1a2.67 2.67 0 0 0 .88.92m5.67-3.86a1.07 1.07 0 0 0 .92.59m-1.75 3.43a2.44 2.44 0 0 0 1.16.7m4.33.2a1.88 1.88 0 0 0 1.15-.3m.78-2.77a.7.7 0 0 0 .6-.66M61.7 56.1a2.87 2.87 0 0 0-.1 1.2m-2.55.7a2.85 2.85 0 0 0 0 1.42l.13-.14m5.9-11.13a.81.81 0 0 0-.24.68M62.22 60.5a2.07 2.07 0 0 0 .29 1.19l-.07-.2M58 62.84c0 .27.07.53.1.8m4.55-12.74l-.3 1v-.07m2.9.47a3.62 3.62 0 0 0 .13 1.27m.07 2.93a2.91 2.91 0 0 0 .42 1m.98 3.4l.5.66v-.13m3.3-1.93l.47.33m-8.66 7.07a1.22 1.22 0 0 0 .73.55m5.93-1.82l.6.18h.13c.04 0 0-.1 0-.1m-.53-13a4.75 4.75 0 0 0-.07 1.3v-.18m-.16-4.88l.52-.76m-.1-3.83l1-.64m-11.33 5.73a1.78 1.78 0 0 1 .73.06m3.4-2.27h.4m-4.86 4.67a2.58 2.58 0 0 0 .16 1.2m1.7 1.07a.87.87 0 0 0 .23.63M66.1 50a.51.51 0 0 0 .37-.38m.53-4.2a1 1 0 0 1 .57-.64m6-2.1l1.07-.08m-3.07 3.77A3.69 3.69 0 0 1 72.9 46m-4 .53a1.49 1.49 0 0 0 .85-.6m5.62-1.7l1.33-.15m.2-2.7a4.76 4.76 0 0 1 1.09-.11m5.58-.27a1.59 1.59 0 0 1 .74.18m-3.6 1.26a1.73 1.73 0 0 1 .74.19m4.33.53a1.62 1.62 0 0 0 .53.29m2.47-.75l.3.24-.3-.24m.57 3.06a5 5 0 0 1 .12 1 .17.17 0 0 0 .17-.14m1.74-1.52a3.37 3.37 0 0 1 .27.87m-.3 1.8l-.1.83v.1c0 .02.1 0 .08 0m2-.46a1.06 1.06 0 0 1-.1.8m-1.97 2.06a.59.59 0 0 1-.19.47m1.96 2l.4.34m-2.03.74a.76.76 0 0 1 .29.39m-2.9.33l-.86 1m-2.26 2.07a6.87 6.87 0 0 0-.83 1.88m-1.65 2.46l-.23 1m-1.7 2.13a10 10 0 0 1-.44 1m-2.62 3a3.52 3.52 0 0 0-.34 1.27M77 73.43a4.94 4.94 0 0 0 0 1.33l-.08-.2m-1.28.54v1.13M75 78.1a2.78 2.78 0 0 0 .2.94m.1 1.66a1.07 1.07 0 0 0 .32.41m-4.52-3.47a.62.62 0 0 0-.17.53m-.63 1.33a1.17 1.17 0 0 0 .3.69M66 78.3a.65.65 0 0 0 .75.24m-5.08-1.24a.52.52 0 0 0 .58.52m-4.15-2.46a1.14 1.14 0 0 0 .93.54M56 71.1a1.17 1.17 0 0 0 .69.94v-.2m-2.2-6.27a1.85 1.85 0 0 0 .43 1.14v-.2m-.63-7.14a3.5 3.5 0 0 0 0 1.07m1-5.27a1.63 1.63 0 0 0-.06.66m2.33.67a1.11 1.11 0 0 0 0 .74m-1.13 2.4a1 1 0 0 0 .33.8m-.07 2.4a2.72 2.72 0 0 0 .22 1.06m.24 2.4l.55.78m.4 2.1a3 3 0 0 0 .5.84m.17 2.1a2.07 2.07 0 0 0 .67.8m1.46 1.93a.8.8 0 0 0 .53.4m2.22.6a.79.79 0 0 0 .44.23c.17 0 .36-.12.34-.3m-1.93-4.38a.62.62 0 0 0 .46.55m.16-2.5a.54.54 0 0 0 .59.44m-2.8-.1a1.2 1.2 0 0 0 .15.37l-.15-.37m-.6-6.53l.35.65M64.5 66a1.44 1.44 0 0 0 .54.4m.33 2.37a1.31 1.31 0 0 0 .53.46m.1 1.87a1.41 1.41 0 0 0 .68.31m-2.25 1.64l.67.52m1.68 2.33a1.1 1.1 0 0 0 1 .29m1.47-1.12a.41.41 0 0 0 .6-.23m-.22-2.34a.29.29 0 0 0 .43 0 .83.83 0 0 0 .22-.45m.92-3.43a.32.32 0 0 0 .52 0m-3.44-1.32a.35.35 0 0 0 .26.35.34.34 0 0 0 .38-.22m-1.38-3.73a.32.32 0 0 0 .37.34m1.66-1.27a.71.71 0 0 0 .92-.41m-2-3.6a.89.89 0 0 0 .6.07m-4.73-.2l.33.87m2.48-3.5a2.7 2.7 0 0 0 .3.88m2.92-1.28a1.19 1.19 0 0 0 .75.54m.08-3.44l.5.52m.5-2.92a2.09 2.09 0 0 0 .73.2M71 49a4.24 4.24 0 0 1 1.6-.73m2.96-1.6l1.27-.45m2.94-1.4l1.23-.07m-1 1.88a3.75 3.75 0 0 0 1-.07M77.64 48l.87-.18m5.2-2.2l1.08.38M87 47.77l.53.6m-1.36.73l.6.87M84 49.9a1 1 0 0 0 .6.54M83 47.57l.87.33M79.7 49h.94m-5.54 1.9l1.2-.47m-1.13-1.6l.8-.2m-1.82 4.08a5 5 0 0 0-.28 1.08M73 55.7c0 .36 0 .7.07 1.07m-.57 2.4l.2.73m-.2 2.1a1.79 1.79 0 0 0 .27.67m-.53 1.83a1.23 1.23 0 0 0 .4.6m.16 2a.55.55 0 0 0 .83.41m1.64-2.4a.45.45 0 0 0 .58.31m-1.55-3.64a.81.81 0 0 0 .6-.2m-.26-2.94a1.27 1.27 0 0 0 .8-.33m.26-3a3.36 3.36 0 0 0 .81-.39m-.27-2.34l1.14-.52m2.86-.75a4.21 4.21 0 0 0 1.06-.07m-.6 1.54a2.55 2.55 0 0 0 .87-.07m-2.73 1.8l.93-.08M78 57.37h.6m-1.3 1.93a9.3 9.3 0 0 0-.05 1.7m.05 2a.88.88 0 0 0 .32.68m1.38-1.9a1.9 1.9 0 0 0 1.39-.55m-.96-1.53l.94-.53m1.4-3a3.76 3.76 0 0 0 .94-.47m.66-1.7l1.13-.4m2.4-1.1a2.49 2.49 0 0 1 .94-.13m-.67 1.73a1.35 1.35 0 0 0 .67-.26m1.46-1l.27.14m-5.13 4.2l.34-.26" class="H I"/><path d="M55.7 215.3h49.43l-5.34-40.36H55.7v40.36zm34.7-111.42l-18.73-14.7a41.26 41.26 0 0 0-16 30.47V170h43.47z" class="E"/><path d="M55.7 170.03v4.92h44.1l-.65-4.92H55.7zm15.96-80.85s-2.63 5 3.45 10.87 16.46 12.58 16.46 12.58l-1.18-8.75z" class="F"/><g class="G"><path d="M59.13 120c-.93 13 1.87 45.3 8.07 56.52 0 0 41.9 5.17 61.87-21.38l-4.3-8.52-40.43 9.1 2.15-33.3a13.75 13.75 0 0 0-11-14.92h0A13.73 13.73 0 0 0 59.13 120z"/><path d="M84.34,155.73s-9.46,3.77-11,14" class="H"/></g><path d="M88.44 81s-2.84-1.22-2.84-4m13.28-14.22s-1.4-1.83-4.66-.65" class="I H"/><path d="M93.75 64.14a4.6 4.6 0 0 1 4.9.35s-2.3 2.72-4.9-.35z" fill="#fff"/></g></g><circle cx="96.9" cy="64.61" r=".88" class="J"/><g class="B C D"><path d="M101.4 71.18a2 2 0 0 1-1.09 1.1 6.49 6.49 0 0 0-1 .38.7.7 0 0 0-.3.88.59.59 0 0 0 .54.25 1.36 1.36 0 0 0 .59-.22c.63-.4 1.2-1 1.92-1m-1.5-8.1a1.44 1.44 0 0 1-1.9 0c-1.88-3.22-4.9-.35-4.9-.35M87 69.7a6.29 6.29 0 0 0 3.47 4.76l1.78.77" class="H I"/><path d="M92.86 57.76l-.7.55c-3.7 3-6.73 7.26-7.12 12a12.51 12.51 0 0 1-.22 2 2.46 2.46 0 0 1-1.07 1.58 2.77 2.77 0 0 1-1.45.3 3 3 0 0 1-1.59-.36 1.76 1.76 0 0 1-.69-1c-.07-.17 0-.32-.1-.48s-.35-.36-.45-.6a2.86 2.86 0 0 1 .11-1.93 22.85 22.85 0 0 1 4.77-8 51.86 51.86 0 0 1 6.93-6.31 4.28 4.28 0 0 1 3-1.3c1.53.12.68 1.6 0 2.35a9 9 0 0 1-1.41 1.2z" class="E"/><path d="M93 51.1s-12.34 9.6-14.48 22.78l.4 3S85.27 59.8 95.1 55c0 0 .2-1.67-2.1-3.9z" class="G"/><g class="E"><path d="M68.56 118.87a1.5 1.5 0 1 1 2.11 0 1.49 1.49 0 0 1-2.11 0zm-4.23-4.23a1.5 1.5 0 1 1 2.11-2.12 1.5 1.5 0 0 1-2.11 2.12zm6.34 0a1.5 1.5 0 1 1 0-2.12 1.5 1.5 0 0 1 0 2.12z"/><circle cx="65.38" cy="117.81" r="1.5"/><path d="M70.5 117.2a1.5 1.5 0 1 1 1.5-1.5 1.5 1.5 0 0 1-1.51 1.49zm-6 0a1.5 1.5 0 1 1 1.5-1.5 1.5 1.5 0 0 1-1.49 1.49z"/><path d="M69 112.7a1.5 1.5 0 1 1-1.49-1.5 1.49 1.49 0 0 1 1.49 1.5zm0 6a1.5 1.5 0 1 1-1.49-1.5 1.49 1.49 0 0 1 1.49 1.5z"/></g><circle cx="67.5" cy="115.7" r="2.47" class="F"/><g class="E"><circle cx="81.5" cy="121.88" r="1.5"/><circle cx="77.27" cy="117.64" r="1.5"/><circle cx="81.5" cy="117.64" r="1.5"/><circle cx="77.27" cy="121.88" r="1.5"/><path d="M82.38 121.26a1.5 1.5 0 1 1 1.49-1.5 1.5 1.5 0 0 1-1.49 1.5zm-5.98 0a1.5 1.5 0 1 1 1.49-1.5 1.5 1.5 0 0 1-1.49 1.5zm4.48-4.5a1.5 1.5 0 1 1-1.49-1.5 1.49 1.49 0 0 1 1.49 1.5z"/><circle cx="79.39" cy="122.75" r="1.5"/></g><circle cx="79.39" cy="119.76" r="2.47" class="F"/><g class="E"><path d="M65.62 131.26a1.5 1.5 0 1 1 2.12 0 1.5 1.5 0 0 1-2.12 0z"/><circle cx="62.45" cy="125.97" r="1.5"/><circle cx="66.68" cy="125.97" r="1.5"/><circle cx="62.45" cy="130.2" r="1.5"/><circle cx="67.56" cy="128.09" r="1.5"/><circle cx="61.58" cy="128.09" r="1.5"/><path d="M66.06 125.1a1.5 1.5 0 1 1-1.49-1.5 1.49 1.49 0 0 1 1.49 1.5zm0 5.98a1.5 1.5 0 1 1-1.49-1.5 1.5 1.5 0 0 1 1.49 1.5z"/></g><circle cx="64.57" cy="128.09" r="2.47" class="F"/><g class="E"><circle cx="78.04" cy="135.85" r="1.5"/><path d="M72.76 132.67a1.49 1.49 0 1 1 2.11 0 1.48 1.48 0 0 1-2.11 0z"/><circle cx="78.04" cy="131.62" r="1.5"/><path d="M74.87 136.9a1.49 1.49 0 1 1-2.11-2.11 1.5 1.5 0 0 1 2.11 0 1.48 1.48 0 0 1 0 2.11z"/><circle cx="78.92" cy="133.73" r="1.5"/><path d="M72.94 135.23a1.5 1.5 0 1 1 1.49-1.5 1.5 1.5 0 0 1-1.49 1.5zm4.48-4.5a1.5 1.5 0 1 1-1.49-1.5 1.49 1.49 0 0 1 1.49 1.5zm0 5.98a1.5 1.5 0 1 1-1.49-1.49 1.49 1.49 0 0 1 1.49 1.49z"/></g><circle cx="75.93" cy="133.73" r="2.47" class="F"/><g class="E"><circle cx="69.24" cy="145.78" r="1.5"/><circle cx="65.01" cy="141.55" r="1.5"/><circle cx="69.24" cy="141.55" r="1.5"/><circle cx="65.01" cy="145.78" r="1.5"/><path d="M70.12 145.16a1.5 1.5 0 1 1 1.49-1.5 1.5 1.5 0 0 1-1.49 1.5zm-6 0a1.5 1.5 0 1 1 1.5-1.5 1.5 1.5 0 0 1-1.5 1.5zm4.5-4.5a1.5 1.5 0 1 1-1.49-1.49 1.5 1.5 0 0 1 1.49 1.49zm0 6a1.5 1.5 0 1 1-1.49-1.5 1.49 1.49 0 0 1 1.49 1.5z"/></g><circle cx="67.13" cy="143.66" r="2.47" class="F"/><g class="E"><path d="M80 150.6a1.5 1.5 0 1 1 2.11 0 1.49 1.49 0 0 1-2.11 0z"/><circle cx="76.82" cy="145.31" r="1.5"/><path d="M82.1 146.37a1.5 1.5 0 1 1 0-2.12 1.5 1.5 0 0 1 0 2.12z"/><circle cx="76.82" cy="149.54" r="1.5"/><path d="M81.93 148.92a1.5 1.5 0 1 1 1.5-1.49 1.5 1.5 0 0 1-1.5 1.49zm-5.93 0a1.5 1.5 0 1 1 1.49-1.49 1.5 1.5 0 0 1-1.49 1.49zm4.43-4.5a1.5 1.5 0 1 1-1.49-1.49 1.49 1.49 0 0 1 1.49 1.49zm0 6a1.5 1.5 0 1 1-1.49-1.5 1.49 1.49 0 0 1 1.49 1.5z"/></g><circle cx="78.94" cy="147.43" r="2.47" class="F"/><g class="E"><path d="M81.65 173.7a1.5 1.5 0 1 1 2.12 0 1.5 1.5 0 0 1-2.12 0z"/><circle cx="78.48" cy="168.4" r="1.5"/><path d="M83.77 169.46a1.5 1.5 0 1 1 0-2.12 1.51 1.51 0 0 1 0 2.12z"/><circle cx="78.48" cy="172.63" r="1.5"/><circle cx="83.59" cy="170.52" r="1.5"/><circle cx="77.6" cy="170.52" r="1.5"/><path d="M82.1 167.53a1.5 1.5 0 1 1-1.5-1.5 1.5 1.5 0 0 1 1.5 1.5zm0 5.97a1.5 1.5 0 1 1-1.5-1.5 1.5 1.5 0 0 1 1.5 1.5z"/></g><circle cx="80.59" cy="170.52" r="2.47" class="F"/><g class="E"><circle cx="105.13" cy="168.27" r="1.5"/><circle cx="100.9" cy="164.04" r="1.5"/><circle cx="105.13" cy="164.04" r="1.5"/><circle cx="100.9" cy="168.27" r="1.5"/><path d="M106 167.65a1.5 1.5 0 1 1 1.5-1.5 1.5 1.5 0 0 1-1.5 1.5zm-6 0a1.5 1.5 0 1 1 1.49-1.5 1.5 1.5 0 0 1-1.49 1.5zm4.5-4.5a1.5 1.5 0 1 1-1.49-1.49 1.5 1.5 0 0 1 1.49 1.49zm0 6a1.5 1.5 0 1 1-1.49-1.5 1.49 1.49 0 0 1 1.49 1.5z"/></g><circle cx="103.02" cy="166.15" r="2.47" class="F"/><g class="E"><circle cx="124.47" cy="156.83" r="1.5"/><circle cx="120.24" cy="152.6" r="1.5"/><circle cx="124.47" cy="152.6" r="1.5"/><circle cx="120.24" cy="156.83" r="1.5"/><path d="M125.35 156.2a1.5 1.5 0 1 1 1.49-1.49 1.5 1.5 0 0 1-1.49 1.49zm-6 0a1.5 1.5 0 1 1 1.5-1.49 1.49 1.49 0 0 1-1.5 1.49zm4.5-4.48a1.5 1.5 0 1 1-1.49-1.49 1.5 1.5 0 0 1 1.49 1.49zm0 5.98a1.5 1.5 0 1 1-1.49-1.5 1.49 1.49 0 0 1 1.49 1.5z"/></g><circle cx="122.36" cy="154.72" r="2.47" class="F"/><g class="E"><circle cx="71.8" cy="160.3" r="1.5"/><circle cx="67.57" cy="156.07" r="1.5"/><circle cx="71.8" cy="156.07" r="1.5"/><circle cx="67.57" cy="160.3" r="1.5"/><path d="M72.68 159.68a1.5 1.5 0 1 1 1.49-1.49 1.5 1.5 0 0 1-1.49 1.49zm-5.98 0a1.5 1.5 0 1 1 1.5-1.49 1.49 1.49 0 0 1-1.5 1.49zm4.48-4.48a1.5 1.5 0 1 1-1.5-1.49 1.5 1.5 0 0 1 1.5 1.49zm0 5.98a1.5 1.5 0 1 1-1.5-1.5 1.5 1.5 0 0 1 1.5 1.5z"/></g><path d="M72.15 158.2a2.47 2.47 0 1 1-2.47-2.47 2.46 2.46 0 0 1 2.47 2.47z" class="F"/><g class="E"><circle cx="92.42" cy="162.18" r="1.5"/><circle cx="88.19" cy="157.95" r="1.5"/><path d="M93.47 159a1.5 1.5 0 1 1 0-2.12 1.5 1.5 0 0 1 0 2.12zm-4.23 4.24a1.5 1.5 0 0 1-2.11 0 1.49 1.49 0 1 1 2.11 0z"/><path d="M93.3 161.56a1.5 1.5 0 1 1 1.5-1.49 1.49 1.49 0 0 1-1.5 1.49zm-6 0a1.5 1.5 0 1 1 1.5-1.49 1.5 1.5 0 0 1-1.5 1.49zm4.5-4.48a1.5 1.5 0 1 1-1.5-1.5 1.5 1.5 0 0 1 1.5 1.5zm0 5.98a1.5 1.5 0 1 1-1.5-1.5 1.5 1.5 0 0 1 1.5 1.5z"/></g><circle cx="90.3" cy="160.07" r="2.47" class="F"/><g class="E"><circle cx="114.09" cy="156.99" r="1.5"/><path d="M108.8 153.82a1.5 1.5 0 1 1 2.11 0 1.49 1.49 0 0 1-2.11 0z"/><circle cx="114.09" cy="152.76" r="1.5"/><path d="M110.9 158.05a1.5 1.5 0 1 1 0-2.12 1.5 1.5 0 0 1 0 2.12zm4.1-1.68a1.5 1.5 0 1 1 1.5-1.49 1.49 1.49 0 0 1-1.5 1.49z"/><path d="M109 156.37a1.5 1.5 0 1 1 1.5-1.49 1.5 1.5 0 0 1-1.5 1.49z"/><circle cx="111.97" cy="151.88" r="1.5"/><circle cx="111.97" cy="157.87" r="1.5"/></g><circle cx="111.97" cy="154.88" r="2.47" class="F"/><g class="G"><path d="M81.7 76.87a1.6 1.6 0 1 1 2.26 0 1.59 1.59 0 0 1-2.26 0zm-4.53-4.53a1.61 1.61 0 1 1 2.27 0 1.6 1.6 0 0 1-2.27 0zm6.83 0a1.602 1.602 0 0 1-2.26-2.27A1.602 1.602 0 1 1 84 72.34zm-4.56 4.53a1.6 1.6 0 1 1 0-2.26 1.6 1.6 0 0 1 0 2.26z"/><path d="M83.78 75.08a1.61 1.61 0 1 1 1.6-1.61 1.61 1.61 0 0 1-1.6 1.61zm-6.4 0A1.61 1.61 0 1 1 79 73.47a1.61 1.61 0 0 1-1.63 1.61zm4.8-4.8a1.6 1.6 0 1 1-1.6-1.6 1.6 1.6 0 0 1 1.6 1.6zm0 6.4a1.6 1.6 0 1 1-1.6-1.6 1.6 1.6 0 0 1 1.6 1.6z"/></g><path d="M83.2 73.47a2.64 2.64 0 1 1-2.64-2.64 2.65 2.65 0 0 1 2.64 2.64z" class="F"/></g></svg>